<svg width="120" height="41" viewBox="0 0 120 41" fill="none" xmlns="http://www.w3.org/2000/svg">
<mask id="mask0_501_7164" style="mask-type:luminance" maskUnits="userSpaceOnUse" x="0" y="0" width="120" height="41">
<path d="M119.832 0.947266H0.167969V40.9473H119.832V0.947266Z" fill="white"/>
</mask>
<g mask="url(#mask0_501_7164)">
<path d="M110.303 0.947396H9.70265C9.33595 0.947396 8.97365 0.947396 8.60792 0.949396C8.30177 0.951396 7.99806 0.957206 7.68897 0.962096C7.01748 0.969998 6.34758 1.02907 5.68507 1.13881C5.02349 1.25093 4.38264 1.46231 3.78419 1.76581C3.18647 2.07187 2.64032 2.46957 2.16554 2.94447C1.68827 3.41803 1.29043 3.96541 0.987319 4.56556C0.683369 5.16451 0.47261 5.80634 0.362319 6.46888C0.25098 7.13058 0.191067 7.79992 0.183119 8.47088C0.173839 8.77748 0.172859 9.0851 0.167969 9.39174V32.506C0.172859 32.8165 0.173839 33.1173 0.183119 33.4279C0.19107 34.0988 0.250982 34.7681 0.362319 35.4298C0.472305 36.0927 0.683077 36.7349 0.987319 37.3341C1.2903 37.9323 1.68819 38.4775 2.16554 38.9484C2.63851 39.4254 3.18502 39.8234 3.78419 40.1271C4.38264 40.4314 5.02342 40.6441 5.68507 40.7579C6.34769 40.8668 7.01753 40.9259 7.68897 40.9347C7.99806 40.9415 8.30177 40.9454 8.60792 40.9454C8.97364 40.9474 9.33597 40.9474 9.70265 40.9474H110.303C110.662 40.9474 111.027 40.9474 111.387 40.9454C111.691 40.9454 112.004 40.9415 112.309 40.9347C112.979 40.9263 113.647 40.8672 114.309 40.7579C114.972 40.6433 115.616 40.4307 116.217 40.1271C116.815 39.8232 117.361 39.4253 117.834 38.9484C118.31 38.4756 118.709 37.9309 119.016 37.3341C119.318 36.7345 119.526 36.0924 119.635 35.4298C119.746 34.768 119.808 34.0989 119.82 33.4279C119.824 33.1173 119.824 32.8165 119.824 32.506C119.832 32.1427 119.832 31.7814 119.832 31.4122V10.4835C119.832 10.1173 119.832 9.75404 119.824 9.39174C119.824 9.0851 119.824 8.77748 119.82 8.47084C119.808 7.79982 119.746 7.13063 119.635 6.46884C119.526 5.80668 119.317 5.1649 119.016 4.56552C118.398 3.36259 117.42 2.38342 116.217 1.76572C115.616 1.46297 114.972 1.25164 114.309 1.13872C113.648 1.0285 112.979 0.969404 112.309 0.961956C112.004 0.957076 111.691 0.951216 111.387 0.949266C111.027 0.947266 110.662 0.947396 110.303 0.947396Z" fill="#A6A6A6"/>
<path d="M8.61284 40.0723C8.30816 40.0723 8.01084 40.0684 7.70855 40.0616C7.08233 40.0534 6.45757 39.9989 5.83941 39.8985C5.263 39.7992 4.70461 39.6146 4.18267 39.3506C3.66551 39.0888 3.19382 38.7456 2.78567 38.334C2.37161 37.9273 2.02688 37.4555 1.76516 36.9375C1.50055 36.4161 1.31742 35.8572 1.22216 35.2803C1.11928 34.6604 1.06362 34.0336 1.05566 33.4053C1.04932 33.1944 1.04102 32.4922 1.04102 32.4922V9.39161C1.04102 9.39161 1.04986 8.7002 1.05571 8.49707C1.06333 7.86975 1.11867 7.24392 1.22124 6.625C1.31668 6.04652 1.49994 5.48602 1.7647 4.9629C2.02546 4.44521 2.36827 3.97313 2.77984 3.56495C3.19094 3.15289 3.66414 2.80787 4.18218 2.54248C4.70292 2.27936 5.26025 2.096 5.8355 1.99854C6.45569 1.89711 7.08262 1.84227 7.71101 1.83448L8.61333 1.82227H111.382L112.295 1.83497C112.918 1.84237 113.539 1.89672 114.153 1.99756C114.734 2.09625 115.298 2.28089 115.824 2.54541C116.862 3.08026 117.707 3.92643 118.239 4.96534C118.5 5.48485 118.68 6.04078 118.775 6.61426C118.878 7.23826 118.936 7.86901 118.948 8.50147C118.951 8.78467 118.951 9.08887 118.951 9.39161C118.959 9.76661 118.959 10.1235 118.959 10.4834V31.4121C118.959 31.7754 118.959 32.1299 118.951 32.4873C118.951 32.8125 118.951 33.1104 118.947 33.417C118.936 34.0382 118.879 34.6577 118.776 35.2705C118.683 35.8516 118.501 36.4148 118.236 36.9405C117.973 37.4529 117.63 37.9206 117.221 38.3262C116.812 38.74 116.34 39.0852 115.821 39.3487C115.296 39.6147 114.734 39.8 114.153 39.8985C113.535 39.9995 112.91 40.054 112.284 40.0616C111.991 40.0684 111.685 40.0723 111.387 40.0723L110.303 40.0743L8.61284 40.0723Z" fill="black"/>
<path d="M24.937 21.2481C24.9477 20.4134 25.1694 19.5951 25.5815 18.8691C25.9935 18.1431 26.5824 17.5332 27.2935 17.096C26.8418 16.4509 26.2458 15.9199 25.553 15.5454C24.8602 15.1708 24.0896 14.963 23.3024 14.9384C21.6231 14.7621 19.9952 15.9432 19.1395 15.9432C18.2672 15.9432 16.9497 14.9559 15.531 14.985C14.6133 15.0147 13.719 15.2815 12.9351 15.7596C12.1512 16.2377 11.5045 16.9106 11.0581 17.7129C9.12404 21.0613 10.5666 25.9824 12.4192 28.689C13.3461 30.0143 14.4294 31.4948 15.8469 31.4423C17.2339 31.3848 17.752 30.5577 19.4263 30.5577C21.085 30.5577 21.5711 31.4423 23.0173 31.4089C24.5057 31.3848 25.4434 30.0777 26.3378 28.7398C27.0038 27.7954 27.5162 26.7516 27.8562 25.6473C26.9915 25.2815 26.2536 24.6693 25.7345 23.887C25.2153 23.1047 24.938 22.187 24.937 21.2481Z" fill="white"/>
<path d="M22.2055 13.1586C23.017 12.1843 23.4168 10.9322 23.32 9.66797C22.0802 9.79819 20.9349 10.3907 20.1124 11.3275C19.7103 11.7852 19.4023 12.3176 19.2061 12.8944C19.0098 13.4712 18.9292 14.081 18.9687 14.6889C19.5889 14.6953 20.2024 14.5609 20.763 14.2958C21.3237 14.0307 21.8169 13.6419 22.2055 13.1586Z" fill="white"/>
<path d="M42.4697 28.087H37.7363L36.5996 31.4434H34.5947L39.0781 19.0254H41.1611L45.6445 31.4434H43.6055L42.4697 28.087ZM38.2266 26.5381H41.9786L40.129 21.0909H40.0772L38.2266 26.5381Z" fill="white"/>
<path d="M55.3272 26.9172C55.3272 29.7307 53.8213 31.5383 51.5489 31.5383C50.9732 31.5684 50.4007 31.4358 49.8969 31.1557C49.3931 30.8755 48.9784 30.4592 48.7002 29.9543H48.6572V34.4387H46.7988V22.3899H48.5977V23.8957H48.6319C48.9228 23.3933 49.3446 22.9791 49.8522 22.6972C50.3598 22.4154 50.9344 22.2764 51.5147 22.2951C53.8125 22.2951 55.3272 24.1115 55.3272 26.9172ZM53.417 26.9172C53.417 25.0842 52.4698 23.8791 51.0245 23.8791C49.6045 23.8791 48.6495 25.1096 48.6495 26.9172C48.6495 28.7414 49.6045 29.9631 51.0245 29.9631C52.4698 29.9631 53.417 28.7668 53.417 26.9172Z" fill="white"/>
<path d="M65.2929 26.9172C65.2929 29.7307 63.7871 31.5383 61.5146 31.5383C60.939 31.5684 60.3666 31.4358 59.8628 31.1557C59.359 30.8755 58.9442 30.4592 58.666 29.9543H58.6231V34.4387H56.7646V22.3899H58.5634V23.8957H58.5976C58.8885 23.3933 59.3104 22.9791 59.818 22.6972C60.3256 22.4154 60.9001 22.2764 61.4804 22.2951C63.7783 22.2951 65.2929 24.1115 65.2929 26.9172ZM63.3829 26.9172C63.3829 25.0842 62.4355 23.8791 60.9902 23.8791C59.5703 23.8791 58.6152 25.1096 58.6152 26.9172C58.6152 28.7414 59.5703 29.9631 60.9902 29.9631C62.4355 29.9631 63.3829 28.7668 63.3829 26.9172Z" fill="white"/>
<path d="M71.878 27.9835C72.0157 29.2149 73.212 30.0235 74.8467 30.0235C76.4131 30.0235 77.5401 29.2149 77.5401 28.1045C77.5401 27.1407 76.8604 26.5635 75.251 26.168L73.6417 25.7803C71.3614 25.2295 70.3028 24.1631 70.3028 22.4327C70.3028 20.2901 72.17 18.8184 74.8213 18.8184C77.4453 18.8184 79.2442 20.2901 79.3047 22.4327H77.4287C77.3164 21.1934 76.292 20.4454 74.7949 20.4454C73.2979 20.4454 72.2735 21.2022 72.2735 22.3038C72.2735 23.1817 72.9278 23.6983 74.5283 24.0938L75.8965 24.4297C78.4444 25.0322 79.503 26.0557 79.503 27.8721C79.503 30.1953 77.6524 31.6504 74.709 31.6504C71.9551 31.6504 70.0957 30.2295 69.9756 27.9834L71.878 27.9835Z" fill="white"/>
<path d="M83.5137 20.2471V22.3897H85.2354V23.8614H83.5137V28.8526C83.5137 29.628 83.8584 29.9893 84.6152 29.9893C84.8196 29.9857 85.0237 29.9714 85.2266 29.9463V31.4092C84.8863 31.4728 84.5404 31.5016 84.1943 31.4951C82.3613 31.4951 81.6465 30.8066 81.6465 29.0508V23.8614H80.3301V22.3897H81.6465V20.2471H83.5137Z" fill="white"/>
<path d="M86.2324 26.9169C86.2324 24.0683 87.9102 22.2783 90.5264 22.2783C93.1514 22.2783 94.8213 24.0683 94.8213 26.9169C94.8213 29.7734 93.1602 31.5556 90.5264 31.5556C87.8935 31.5556 86.2324 29.7734 86.2324 26.9169ZM92.9277 26.9169C92.9277 24.9628 92.0322 23.8095 90.5264 23.8095C89.0205 23.8095 88.126 24.9716 88.126 26.9169C88.126 28.8788 89.0205 30.0234 90.5264 30.0234C92.0322 30.0234 92.9277 28.8788 92.9277 26.9169Z" fill="white"/>
<path d="M96.3535 22.3898H98.126V23.9308H98.169C98.2889 23.4495 98.5709 23.0242 98.9675 22.7263C99.3641 22.4284 99.8511 22.2761 100.347 22.295C100.561 22.2943 100.775 22.3176 100.984 22.3644V24.1027C100.714 24.02 100.432 23.9821 100.149 23.9904C99.8785 23.9794 99.6093 24.027 99.3595 24.1299C99.1096 24.2328 98.885 24.3885 98.701 24.5864C98.5171 24.7843 98.3781 25.0197 98.2937 25.2763C98.2092 25.533 98.1814 25.8049 98.2119 26.0734V31.4435H96.3535V22.3898Z" fill="white"/>
<path d="M109.552 28.7841C109.302 30.4277 107.702 31.5556 105.654 31.5556C103.02 31.5556 101.385 29.7909 101.385 26.9599C101.385 24.1201 103.029 22.2783 105.576 22.2783C108.081 22.2783 109.656 23.999 109.656 26.7441V27.3808H103.261V27.4931C103.232 27.8263 103.273 28.162 103.384 28.4778C103.494 28.7936 103.67 29.0824 103.9 29.325C104.131 29.5675 104.41 29.7583 104.72 29.8846C105.029 30.0109 105.363 30.0698 105.697 30.0575C106.136 30.0987 106.577 29.997 106.953 29.7675C107.33 29.5381 107.623 29.1932 107.788 28.7841H109.552ZM103.27 26.082H107.796C107.813 25.7824 107.768 25.4826 107.663 25.2013C107.558 24.9201 107.397 24.6636 107.188 24.4478C106.98 24.2321 106.729 24.0617 106.451 23.9475C106.174 23.8333 105.876 23.7777 105.576 23.7841C105.273 23.7823 104.973 23.8405 104.693 23.9552C104.413 24.0699 104.158 24.239 103.944 24.4526C103.73 24.6663 103.56 24.9202 103.444 25.1999C103.328 25.4795 103.269 25.7793 103.27 26.082Z" fill="white"/>
<path d="M37.9942 9.67816C38.3838 9.6502 38.7747 9.70906 39.1389 9.8505C39.503 9.99193 39.8312 10.2124 40.0997 10.496C40.3683 10.7796 40.5706 11.1193 40.692 11.4906C40.8134 11.8619 40.8509 12.2554 40.8018 12.643C40.8018 14.5492 39.7715 15.645 37.9942 15.645H35.8389V9.67816H37.9942ZM36.7656 14.8011H37.8906C38.1691 14.8178 38.4477 14.7721 38.7062 14.6675C38.9647 14.5629 39.1967 14.4019 39.3852 14.1964C39.5737 13.9908 39.714 13.7458 39.7958 13.4792C39.8777 13.2126 39.8991 12.931 39.8584 12.6551C39.8961 12.3803 39.8726 12.1005 39.7895 11.8358C39.7063 11.5712 39.5657 11.3282 39.3776 11.1242C39.1896 10.9203 38.9587 10.7605 38.7017 10.6563C38.4446 10.552 38.1676 10.506 37.8906 10.5213H36.7656V14.8011Z" fill="white"/>
<path d="M41.8489 13.3916C41.8206 13.0957 41.8544 12.7971 41.9483 12.5151C42.0421 12.233 42.1939 11.9736 42.3938 11.7537C42.5938 11.5337 42.8375 11.3579 43.1093 11.2376C43.3812 11.1174 43.6752 11.0552 43.9724 11.0552C44.2697 11.0552 44.5637 11.1174 44.8355 11.2376C45.1074 11.3579 45.3511 11.5337 45.551 11.7537C45.751 11.9736 45.9027 12.233 45.9966 12.5151C46.0904 12.7971 46.1243 13.0957 46.096 13.3916C46.1248 13.6878 46.0914 13.9868 45.9978 14.2693C45.9042 14.5519 45.7525 14.8117 45.5525 15.0321C45.3525 15.2525 45.1086 15.4286 44.8365 15.5492C44.5644 15.6697 44.2701 15.732 43.9724 15.732C43.6748 15.732 43.3805 15.6697 43.1084 15.5492C42.8362 15.4286 42.5923 15.2525 42.3923 15.0321C42.1924 14.8117 42.0407 14.5519 41.9471 14.2693C41.8535 13.9868 41.8201 13.6878 41.8489 13.3916ZM45.1819 13.3916C45.1819 12.4155 44.7434 11.8447 43.9739 11.8447C43.2014 11.8447 42.7669 12.4155 42.7669 13.3916C42.7669 14.3755 43.2015 14.9419 43.9739 14.9419C44.7434 14.9419 45.1819 14.3716 45.1819 13.3916Z" fill="white"/>
<path d="M51.7412 15.6451H50.8194L49.8887 12.3286H49.8184L48.8916 15.6451H47.9785L46.7373 11.1421H47.6387L48.4453 14.5781H48.5118L49.4375 11.1421H50.2901L51.2159 14.5781H51.2862L52.0889 11.1421H52.9776L51.7412 15.6451Z" fill="white"/>
<path d="M54.0215 11.1422H54.877V11.8575H54.9434C55.056 11.6006 55.2461 11.3852 55.4869 11.2414C55.7278 11.0976 56.0075 11.0325 56.2871 11.0552C56.5062 11.0388 56.7262 11.0718 56.9308 11.1519C57.1354 11.232 57.3194 11.3571 57.4691 11.518C57.6188 11.6788 57.7303 11.8713 57.7955 12.0811C57.8607 12.2909 57.8779 12.5127 57.8457 12.73V15.645H56.9571V12.9532C56.9571 12.2296 56.6426 11.8697 55.9854 11.8697C55.8366 11.8628 55.6881 11.8881 55.5501 11.9439C55.412 11.9998 55.2877 12.0848 55.1855 12.1932C55.0834 12.3016 55.0059 12.4307 54.9584 12.5719C54.9109 12.713 54.8944 12.8627 54.9102 13.0108V15.6451H54.0215V11.1422Z" fill="white"/>
<path d="M59.2617 9.38428H60.1503V15.6451H59.2617V9.38428Z" fill="white"/>
<path d="M61.386 13.3917C61.3577 13.0957 61.3916 12.7972 61.4854 12.5151C61.5793 12.233 61.7311 11.9736 61.931 11.7537C62.131 11.5337 62.3747 11.3579 62.6466 11.2376C62.9185 11.1173 63.2125 11.0552 63.5098 11.0552C63.8071 11.0552 64.1011 11.1173 64.3729 11.2376C64.6448 11.3579 64.8885 11.5337 65.0885 11.7537C65.2885 11.9736 65.4402 12.233 65.5341 12.5151C65.628 12.7972 65.6618 13.0957 65.6335 13.3917C65.6624 13.6879 65.6289 13.9869 65.5353 14.2694C65.4416 14.5519 65.2899 14.8118 65.0899 15.0322C64.8899 15.2526 64.646 15.4287 64.3739 15.5492C64.1017 15.6698 63.8074 15.732 63.5098 15.732C63.2121 15.732 62.9178 15.6698 62.6457 15.5492C62.3735 15.4287 62.1296 15.2526 61.9296 15.0322C61.7296 14.8118 61.5779 14.5519 61.4843 14.2694C61.3907 13.9869 61.3572 13.6879 61.386 13.3917ZM64.719 13.3917C64.719 12.4156 64.2805 11.8448 63.511 11.8448C62.7385 11.8448 62.304 12.4156 62.304 13.3917C62.304 14.3756 62.7386 14.942 63.511 14.942C64.2805 14.942 64.719 14.3717 64.719 13.3917Z" fill="white"/>
<path d="M66.5693 14.3716C66.5693 13.5611 67.1728 13.0938 68.2441 13.0274L69.4638 12.9571V12.5684C69.4638 12.0928 69.1494 11.8243 68.5419 11.8243C68.0458 11.8243 67.7021 12.0064 67.6035 12.3247H66.7431C66.8339 11.5513 67.5615 11.0552 68.583 11.0552C69.7119 11.0552 70.3486 11.6172 70.3486 12.5684V15.6451H69.4931V15.0122H69.4228C69.2801 15.2392 69.0797 15.4243 68.8421 15.5485C68.6044 15.6727 68.3381 15.7316 68.0703 15.7192C67.8812 15.7389 67.6902 15.7187 67.5094 15.66C67.3286 15.6013 67.1622 15.5054 67.0208 15.3784C66.8794 15.2515 66.7661 15.0963 66.6884 14.9229C66.6106 14.7494 66.57 14.5617 66.5693 14.3716ZM69.4638 13.9868V13.6104L68.3642 13.6807C67.7441 13.7222 67.4628 13.9331 67.4628 14.3301C67.4628 14.7354 67.8144 14.9712 68.2978 14.9712C68.4395 14.9855 68.5826 14.9712 68.7186 14.9292C68.8546 14.8871 68.9807 14.818 69.0895 14.7262C69.1983 14.6344 69.2875 14.5216 69.3518 14.3946C69.4161 14.2675 69.4542 14.1289 69.4638 13.9868Z" fill="white"/>
<path d="M71.5156 13.3917C71.5156 11.9688 72.2471 11.0674 73.3848 11.0674C73.6662 11.0545 73.9455 11.1219 74.19 11.2618C74.4345 11.4017 74.6342 11.6083 74.7656 11.8574H74.8321V9.38428H75.7207V15.6451H74.8692V14.9336H74.7989C74.6572 15.1811 74.4506 15.3851 74.2014 15.5236C73.9521 15.6621 73.6697 15.7298 73.3848 15.7193C72.2393 15.7193 71.5156 14.8179 71.5156 13.3917ZM72.4336 13.3917C72.4336 14.3467 72.8838 14.9214 73.6368 14.9214C74.3858 14.9214 74.8487 14.3384 74.8487 13.3956C74.8487 12.4571 74.3809 11.8658 73.6368 11.8658C72.8887 11.8658 72.4336 12.4444 72.4336 13.3917Z" fill="white"/>
<path d="M79.3977 13.3916C79.3694 13.0957 79.4033 12.7971 79.4971 12.5151C79.5909 12.233 79.7427 11.9736 79.9426 11.7537C80.1426 11.5337 80.3863 11.3579 80.6581 11.2376C80.93 11.1174 81.224 11.0552 81.5213 11.0552C81.8185 11.0552 82.1125 11.1174 82.3844 11.2376C82.6562 11.3579 82.8999 11.5337 83.0999 11.7537C83.2998 11.9736 83.4516 12.233 83.5454 12.5151C83.6392 12.7971 83.6731 13.0957 83.6448 13.3916C83.6736 13.6878 83.6402 13.9868 83.5466 14.2693C83.453 14.5519 83.3013 14.8117 83.1013 15.0321C82.9013 15.2525 82.6574 15.4286 82.3853 15.5492C82.1132 15.6697 81.8189 15.732 81.5213 15.732C81.2236 15.732 80.9293 15.6697 80.6572 15.5492C80.385 15.4286 80.1412 15.2525 79.9412 15.0321C79.7412 14.8117 79.5895 14.5519 79.4959 14.2693C79.4023 13.9868 79.3689 13.6878 79.3977 13.3916ZM82.7307 13.3916C82.7307 12.4155 82.2922 11.8447 81.5227 11.8447C80.7503 11.8447 80.3157 12.4155 80.3157 13.3916C80.3157 14.3755 80.7503 14.9419 81.5227 14.9419C82.2922 14.9419 82.7307 14.3716 82.7307 13.3916Z" fill="white"/>
<path d="M84.8369 11.1422H85.6924V11.8575H85.7588C85.8715 11.6006 86.0615 11.3852 86.3023 11.2414C86.5432 11.0976 86.823 11.0325 87.1026 11.0552C87.3217 11.0388 87.5417 11.0718 87.7463 11.1519C87.9509 11.232 88.1348 11.3571 88.2845 11.518C88.4342 11.6788 88.5458 11.8713 88.611 12.0811C88.6762 12.2909 88.6933 12.5127 88.6612 12.73V15.645H87.7725V12.9532C87.7725 12.2296 87.458 11.8697 86.8008 11.8697C86.6521 11.8628 86.5035 11.8881 86.3655 11.9439C86.2274 11.9998 86.1031 12.0848 86.001 12.1932C85.8988 12.3016 85.8214 12.4307 85.7738 12.5719C85.7263 12.713 85.7098 12.8627 85.7256 13.0108V15.6451H84.8369V11.1422Z" fill="white"/>
<path d="M93.6826 10.021V11.1626H94.6582V11.9112H93.6826V14.2266C93.6826 14.6983 93.877 14.9048 94.3194 14.9048C94.4326 14.9045 94.5458 14.8976 94.6582 14.8843V15.6245C94.4986 15.6531 94.3369 15.6683 94.1748 15.6699C93.1865 15.6699 92.793 15.3223 92.793 14.4541V11.9111H92.0781V11.1626H92.793V10.021H93.6826Z" fill="white"/>
<path d="M95.873 9.38428H96.7539V11.8658H96.8242C96.9423 11.6064 97.1375 11.3898 97.3832 11.2455C97.6289 11.1012 97.9132 11.0361 98.1973 11.0591C98.4152 11.0473 98.633 11.0837 98.8354 11.1657C99.0377 11.2477 99.2192 11.3734 99.3674 11.5337C99.5155 11.6941 99.6265 11.8851 99.6923 12.0933C99.7581 12.3014 99.777 12.5215 99.7479 12.7378V15.6451H98.8585V12.9571C98.8585 12.2378 98.5234 11.8736 97.8955 11.8736C97.7427 11.861 97.5892 11.882 97.4454 11.9351C97.3017 11.9881 97.1711 12.072 97.0631 12.1807C96.9551 12.2894 96.8723 12.4205 96.8202 12.5646C96.7682 12.7087 96.7481 12.8625 96.7617 13.0152V15.645H95.873V9.38428Z" fill="white"/>
<path d="M104.929 14.4293C104.809 14.8408 104.547 15.1968 104.19 15.435C103.834 15.6731 103.404 15.7783 102.978 15.732C102.681 15.7398 102.387 15.683 102.114 15.5655C101.842 15.448 101.598 15.2725 101.4 15.0514C101.202 14.8303 101.055 14.5687 100.968 14.2849C100.881 14.0011 100.857 13.7018 100.898 13.4078C100.859 13.1129 100.883 12.813 100.969 12.5283C101.056 12.2436 101.202 11.9809 101.399 11.7578C101.596 11.5347 101.839 11.3566 102.11 11.2353C102.382 11.1141 102.677 11.0527 102.974 11.0553C104.227 11.0553 104.983 11.9113 104.983 13.3253V13.6354H101.803V13.6852C101.789 13.8504 101.81 14.0167 101.864 14.1735C101.918 14.3302 102.005 14.4739 102.118 14.5954C102.23 14.7168 102.368 14.8134 102.52 14.8788C102.672 14.9442 102.837 14.977 103.003 14.9752C103.215 15.0007 103.43 14.9624 103.621 14.8652C103.812 14.768 103.97 14.6162 104.074 14.4293H104.929ZM101.803 12.9781H104.078C104.089 12.827 104.068 12.6752 104.017 12.5325C103.966 12.3897 103.886 12.2593 103.782 12.1494C103.677 12.0396 103.551 11.9527 103.411 11.8946C103.271 11.8364 103.121 11.8081 102.969 11.8116C102.816 11.8097 102.663 11.8385 102.521 11.8965C102.378 11.9544 102.249 12.0403 102.14 12.149C102.032 12.2577 101.946 12.3871 101.888 12.5295C101.83 12.6719 101.801 12.8244 101.803 12.9781Z" fill="white"/>
</g>
</svg>
