<svg width="137" height="42" viewBox="0 0 137 42" fill="none" xmlns="http://www.w3.org/2000/svg">
<g clip-path="url(#clip0_501_7223)">
<path fill-rule="evenodd" clip-rule="evenodd" d="M131.496 41.4473H6.49609C3.74609 41.4473 1.49609 39.1973 1.49609 36.4473V6.44727C1.49609 3.69727 3.74609 1.44727 6.49609 1.44727H131.496C134.246 1.44727 136.496 3.69727 136.496 6.44727V36.4473C136.496 39.1973 134.246 41.4473 131.496 41.4473Z" fill="black"/>
<path fill-rule="evenodd" clip-rule="evenodd" d="M131.496 1.44727H6.49609C3.74609 1.44727 1.49609 3.69727 1.49609 6.44727V36.4473C1.49609 39.1973 3.74609 41.4473 6.49609 41.4473H131.496C134.246 41.4473 136.496 39.1973 136.496 36.4473V6.44727C136.496 3.69727 134.246 1.44727 131.496 1.44727ZM131.496 2.24727C133.812 2.24727 135.696 4.13127 135.696 6.44727V36.4473C135.696 38.7633 133.812 40.6473 131.496 40.6473H6.49609C4.18009 40.6473 2.29609 38.7633 2.29609 36.4473V6.44727C2.29609 4.13127 4.18009 2.24727 6.49609 2.24727H131.496Z" fill="#A6A6A6"/>
<path fill-rule="evenodd" clip-rule="evenodd" d="M48.9147 11.6905C48.9147 12.5285 48.6657 13.1965 48.1687 13.6935C47.6047 14.2855 46.8697 14.5815 45.9647 14.5815C45.0987 14.5815 44.3627 14.2815 43.7567 13.6805C43.1507 13.0805 42.8477 12.3355 42.8477 11.4475C42.8477 10.5585 43.1507 9.81448 43.7567 9.21448C44.3627 8.61348 45.0987 8.31348 45.9647 8.31348C46.3947 8.31348 46.8057 8.39748 47.1967 8.56448C47.5867 8.73248 47.9007 8.95548 48.1347 9.23548L47.6077 9.76248C47.2097 9.28848 46.6637 9.05148 45.9647 9.05148C45.3327 9.05148 44.7877 9.27248 44.3267 9.71748C43.8657 10.1615 43.6347 10.7385 43.6347 11.4475C43.6347 12.1565 43.8657 12.7335 44.3267 13.1775C44.7877 13.6225 45.3327 13.8435 45.9647 13.8435C46.6347 13.8435 47.1937 13.6205 47.6407 13.1745C47.9307 12.8835 48.0987 12.4785 48.1437 11.9585H45.9647V11.2385H48.8727C48.9007 11.3945 48.9147 11.5455 48.9147 11.6905Z" fill="white"/>
<path fill-rule="evenodd" clip-rule="evenodd" d="M48.915 11.6904H48.8151C48.8141 12.5094 48.575 13.1454 48.099 13.6224L48.098 13.6234L48.097 13.6244C47.551 14.1954 46.848 14.4804 45.965 14.4814C45.122 14.4804 44.417 14.1924 43.828 13.6094C43.24 13.0264 42.9491 12.3134 42.9481 11.4474C42.9491 10.5814 43.24 9.86839 43.828 9.28539C44.417 8.70239 45.122 8.41439 45.965 8.41339C46.382 8.41339 46.779 8.49439 47.157 8.65639C47.536 8.81939 47.8361 9.03339 48.0591 9.29939L48.1351 9.23539L48.064 9.16439L47.5371 9.69239L47.608 9.76239L47.6841 9.69839C47.2691 9.20039 46.685 8.94939 45.965 8.95139C45.31 8.95039 44.734 9.18439 44.257 9.64539C43.776 10.1074 43.534 10.7164 43.535 11.4474C43.534 12.1784 43.776 12.7874 44.257 13.2494C44.734 13.7104 45.31 13.9444 45.965 13.9444C46.657 13.9454 47.247 13.7104 47.712 13.2444C48.022 12.9334 48.198 12.5034 48.244 11.9674L48.2531 11.8584H46.0651V11.3374H48.873V11.2384L48.7741 11.2554C48.8011 11.4074 48.8151 11.5514 48.8151 11.6904H49.015C49.015 11.5384 49 11.3824 48.971 11.2204L48.956 11.1384H45.865V12.0584H48.144V11.9584L48.0441 11.9504C48.0001 12.4534 47.84 12.8324 47.57 13.1034C47.14 13.5314 46.613 13.7434 45.965 13.7444C45.357 13.7434 44.841 13.5334 44.396 13.1064C43.955 12.6794 43.736 12.1354 43.735 11.4474C43.736 10.7594 43.955 10.2154 44.396 9.78839C44.841 9.36139 45.357 9.15139 45.965 9.15139C46.642 9.15239 47.1521 9.37639 47.5311 9.82739L47.601 9.91039L48.206 9.30539L48.271 9.24139L48.212 9.17039C47.9661 8.87739 47.638 8.64539 47.236 8.47239C46.833 8.30039 46.408 8.21338 45.965 8.21338C45.076 8.21239 44.309 8.52439 43.687 9.14339C43.062 9.76039 42.747 10.5364 42.748 11.4474C42.747 12.3584 43.062 13.1344 43.687 13.7524C44.309 14.3704 45.076 14.6824 45.965 14.6814C46.891 14.6824 47.659 14.3744 48.242 13.7624L48.1691 13.6934L48.24 13.7644C48.758 13.2464 49.015 12.5474 49.015 11.6904H48.915Z" fill="white"/>
<path fill-rule="evenodd" clip-rule="evenodd" d="M53.5245 9.18427H50.7915V11.0873H53.2555V11.8073H50.7915V13.7103H53.5245V14.4473H50.0215V8.44727H53.5245V9.18427Z" fill="white"/>
<path fill-rule="evenodd" clip-rule="evenodd" d="M53.5239 9.18417V9.08417H50.6909V11.1871H53.1549V11.7071H50.6909V13.8101H53.4239V14.3471H50.1209V8.54718H53.4239V9.18417H53.5239H53.6239V8.34717H49.9209V14.5471H53.6239V13.6101H50.8909V11.9071H53.3549V10.9871H50.8909V9.28417H53.6239V9.18417H53.5239Z" fill="white"/>
<path fill-rule="evenodd" clip-rule="evenodd" d="M56.7751 14.4473H56.0031V9.18427H54.3281V8.44727H58.4511V9.18427H56.7751V14.4473Z" fill="white"/>
<path fill-rule="evenodd" clip-rule="evenodd" d="M56.7746 14.4471V14.3471H56.1026V9.08417H54.4266V8.54718H58.3506V9.08417H56.6746V14.4471H56.7746H56.8746V9.28417H58.5506V8.34717H54.2266V9.28417H55.9026V14.5471H56.8746V14.4471H56.7746Z" fill="white"/>
<path fill-rule="evenodd" clip-rule="evenodd" d="M61.4346 14.4473H62.2055V8.44727H61.4346V14.4473Z" fill="white"/>
<path fill-rule="evenodd" clip-rule="evenodd" d="M61.434 14.4471H61.534V8.54718H62.104V14.3471H61.434V14.4471V14.5471H62.305V8.34717H61.334V14.5471H61.434V14.4471Z" fill="white"/>
<path fill-rule="evenodd" clip-rule="evenodd" d="M65.6238 14.4473H64.8528V9.18427H63.1768V8.44727H67.2998V9.18427H65.6238V14.4473Z" fill="white"/>
<path fill-rule="evenodd" clip-rule="evenodd" d="M65.6241 14.4471V14.3471H64.9532V9.08417H63.2771V8.54718H67.2002V9.08417H65.5242V14.4471H65.6241H65.7241V9.28417H67.4002V8.34717H63.0771V9.28417H64.7532V14.5471H65.7241V14.4471H65.6241Z" fill="white"/>
<path fill-rule="evenodd" clip-rule="evenodd" d="M71.2753 13.1695C71.7203 13.6195 72.2633 13.8435 72.9053 13.8435C73.5483 13.8435 74.0923 13.6195 74.5353 13.1695C74.9793 12.7195 75.2023 12.1455 75.2023 11.4475C75.2023 10.7495 74.9793 10.1755 74.5353 9.72548C74.0923 9.27548 73.5483 9.05148 72.9053 9.05148C72.2633 9.05148 71.7203 9.27548 71.2753 9.72548C70.8323 10.1755 70.6093 10.7495 70.6093 11.4475C70.6093 12.1455 70.8323 12.7195 71.2753 13.1695ZM75.1053 13.6725C74.5163 14.2785 73.7823 14.5815 72.9053 14.5815C72.0283 14.5815 71.2953 14.2785 70.7063 13.6725C70.1163 13.0665 69.8223 12.3245 69.8223 11.4475C69.8223 10.5705 70.1163 9.82848 70.7063 9.22248C71.2953 8.61648 72.0283 8.31348 72.9053 8.31348C73.7773 8.31348 74.5093 8.61748 75.1013 9.22648C75.6933 9.83548 75.9893 10.5755 75.9893 11.4475C75.9893 12.3245 75.6943 13.0665 75.1053 13.6725Z" fill="white"/>
<path fill-rule="evenodd" clip-rule="evenodd" d="M71.2747 13.1694L71.2037 13.2394C71.6647 13.7074 72.2387 13.9454 72.9047 13.9444C73.5707 13.9454 74.1457 13.7074 74.6057 13.2394C75.0697 12.7724 75.3027 12.1664 75.3017 11.4474C75.3027 10.7284 75.0697 10.1234 74.6057 9.65539C74.1457 9.18739 73.5707 8.95039 72.9047 8.95138C72.2387 8.95039 71.6647 9.18739 71.2037 9.65539C70.7417 10.1234 70.5077 10.7284 70.5087 11.4474C70.5077 12.1664 70.7417 12.7724 71.2037 13.2394L71.3467 13.0994C70.9217 12.6684 70.7097 12.1244 70.7087 11.4474C70.7097 10.7704 70.9217 10.2264 71.3467 9.79539C71.7757 9.36339 72.2857 9.15239 72.9047 9.15139C73.5247 9.15239 74.0367 9.36339 74.4637 9.79539C74.8887 10.2274 75.1007 10.7704 75.1017 11.4474C75.1007 12.1244 74.8887 12.6674 74.4637 13.0994C74.0367 13.5314 73.5247 13.7434 72.9047 13.7444C72.2857 13.7424 71.7757 13.5314 71.3467 13.0994L71.2747 13.1694ZM75.1047 13.6724L75.0337 13.6024C74.4607 14.1904 73.7587 14.4804 72.9047 14.4814C72.0507 14.4804 71.3497 14.1904 70.7777 13.6024C70.2057 13.0134 69.9227 12.3024 69.9217 11.4474C69.9227 10.5924 70.2057 9.88139 70.7777 9.29239C71.3497 8.70439 72.0507 8.41439 72.9047 8.41339C73.7537 8.41439 74.4527 8.70639 75.0297 9.29639C75.6037 9.88839 75.8877 10.5984 75.8887 11.4474C75.8877 12.3024 75.6047 13.0134 75.0337 13.6024L75.1767 13.7414C75.7837 13.1194 76.0897 12.3464 76.0887 11.4474C76.0897 10.5534 75.7817 9.78239 75.1727 9.15739C74.5637 8.52939 73.7997 8.21239 72.9047 8.21338C72.0047 8.21239 71.2397 8.52839 70.6337 9.15339C70.0267 9.77639 69.7207 10.5484 69.7217 11.4474C69.7207 12.3464 70.0267 13.1194 70.6337 13.7414C71.2397 14.3674 72.0047 14.6824 72.9047 14.6814C73.8047 14.6824 74.5707 14.3674 75.1767 13.7414L75.1047 13.6724Z" fill="white"/>
<path fill-rule="evenodd" clip-rule="evenodd" d="M77.0713 14.4473V8.44727H78.0103L80.9263 13.1143H80.9593L80.9263 11.9583V8.44727H81.6973V14.4473H80.8923L77.8423 9.55327H77.8083L77.8423 10.7103V14.4473H77.0713Z" fill="white"/>
<path fill-rule="evenodd" clip-rule="evenodd" d="M77.0707 14.4471H77.1707V8.54718H77.9537L80.8697 13.2151H81.0617L81.0257 11.9571V8.54718H81.5967V14.3471H80.9477L77.8967 9.45318H77.7057L77.7417 10.7112V14.3471H77.0707V14.4471V14.5471H77.9417V10.7082L77.9077 9.55117L77.8077 9.55318V9.65317H77.8417V9.55318L77.7567 9.60618L80.8367 14.5471H81.7967V8.34717H80.8257V11.9601L80.8587 13.1171L80.9587 13.1141V13.0151H80.9257V13.1141L81.0107 13.0621L78.0647 8.34717H76.9707V14.5471H77.0707V14.4471Z" fill="white"/>
<path fill-rule="evenodd" clip-rule="evenodd" d="M108.432 31.4471H110.298V18.9461H108.432V31.4471ZM125.239 23.4491L123.1 28.8691H123.036L120.816 23.4491H118.806L122.135 31.0241L120.237 35.2381H122.184L127.314 23.4491H125.239ZM114.657 30.0271C114.045 30.0271 113.193 29.7221 113.193 28.9661C113.193 28.0011 114.255 27.6311 115.171 27.6311C115.992 27.6311 116.377 27.8081 116.876 28.0491C116.731 29.2071 115.734 30.0271 114.657 30.0271ZM114.882 23.1761C113.531 23.1761 112.132 23.7711 111.553 25.0901L113.209 25.7811C113.563 25.0901 114.222 24.8641 114.914 24.8641C115.879 24.8641 116.86 25.4431 116.876 26.4731V26.6011C116.538 26.4081 115.815 26.1191 114.93 26.1191C113.145 26.1191 111.327 27.1001 111.327 28.9331C111.327 30.6061 112.791 31.6841 114.431 31.6841C115.686 31.6841 116.377 31.1211 116.812 30.4611H116.876V31.4261H118.677V26.6341C118.677 24.4141 117.021 23.1761 114.882 23.1761ZM103.35 24.9711H100.696V20.6861H103.35C104.745 20.6861 105.537 21.8411 105.537 22.8281C105.537 23.7971 104.745 24.9711 103.35 24.9711ZM103.302 18.9461H98.8311V31.4471H100.696V26.7111H103.302C105.37 26.7111 107.403 25.2131 107.403 22.8281C107.403 20.4431 105.37 18.9461 103.302 18.9461ZM78.9211 30.0291C77.6321 30.0291 76.5531 28.9501 76.5531 27.4681C76.5531 25.9701 77.6321 24.8741 78.9211 24.8741C80.1941 24.8741 81.1921 25.9701 81.1921 27.4681C81.1921 28.9501 80.1941 30.0291 78.9211 30.0291ZM81.0631 24.1491H80.9991C80.5801 23.6501 79.7751 23.1991 78.7601 23.1991C76.6331 23.1991 74.6841 25.0671 74.6841 27.4681C74.6841 29.8521 76.6331 31.7051 78.7601 31.7051C79.7751 31.7051 80.5801 31.2541 80.9991 30.7381H81.0631V31.3501C81.0631 32.9781 80.1941 33.8481 78.7921 33.8481C77.6481 33.8481 76.9391 33.0261 76.6491 32.3331L75.0221 33.0101C75.4891 34.1381 76.7301 35.5231 78.7921 35.5231C80.9831 35.5231 82.8361 34.2341 82.8361 31.0931V23.4561H81.0631V24.1491ZM84.1251 31.4471H85.9941V18.9451H84.1251V31.4471ZM88.7481 27.3231C88.7001 25.6801 90.0211 24.8421 90.9711 24.8421C91.7131 24.8421 92.3411 25.2121 92.5501 25.7441L88.7481 27.3231ZM94.5481 25.9051C94.1941 24.9551 93.1141 23.1991 90.9071 23.1991C88.7161 23.1991 86.8961 24.9221 86.8961 27.4521C86.8961 29.8361 88.7001 31.7051 91.1161 31.7051C93.0661 31.7051 94.1941 30.5131 94.6611 29.8201L93.2111 28.8531C92.728 29.5621 92.0671 30.0291 91.1161 30.0291C90.1661 30.0291 89.4891 29.5941 89.0541 28.7411L94.7411 26.3891L94.5481 25.9051ZM49.2401 24.5041V26.3081H53.5571C53.4281 27.3231 53.0901 28.0641 52.5751 28.5801C51.9461 29.2081 50.9631 29.9001 49.2401 29.9001C46.5821 29.9001 44.5031 27.7581 44.5031 25.1001C44.5031 22.4411 46.5821 20.2991 49.2401 20.2991C50.6741 20.2991 51.7211 20.8631 52.4941 21.5881L53.7671 20.3151C52.6871 19.2841 51.2541 18.4941 49.2401 18.4941C45.5991 18.4941 42.5381 21.4591 42.5381 25.1001C42.5381 28.7411 45.5991 31.7051 49.2401 31.7051C51.2051 31.7051 52.6871 31.0611 53.8471 29.8521C55.0391 28.6601 55.4101 26.9851 55.4101 25.6311C55.4101 25.2121 55.3781 24.8261 55.3131 24.5041H49.2401ZM60.3191 30.0291C59.0301 30.0291 57.9181 28.9661 57.9181 27.4521C57.9181 25.9211 59.0301 24.8741 60.3191 24.8741C61.6071 24.8741 62.7191 25.9211 62.7191 27.4521C62.7191 28.9661 61.6071 30.0291 60.3191 30.0291ZM60.3191 23.1991C57.9661 23.1991 56.0491 24.9871 56.0491 27.4521C56.0491 29.9001 57.9661 31.7051 60.3191 31.7051C62.6711 31.7051 64.5881 29.9001 64.5881 27.4521C64.5881 24.9871 62.6711 23.1991 60.3191 23.1991ZM69.6321 30.0291C68.3431 30.0291 67.2311 28.9661 67.2311 27.4521C67.2311 25.9211 68.3431 24.8741 69.6321 24.8741C70.9211 24.8741 72.0321 25.9211 72.0321 27.4521C72.0321 28.9661 70.9211 30.0291 69.6321 30.0291ZM69.6321 23.1991C67.2801 23.1991 65.3631 24.9871 65.3631 27.4521C65.3631 29.9001 67.2801 31.7051 69.6321 31.7051C71.9841 31.7051 73.9011 29.9001 73.9011 27.4521C73.9011 24.9871 71.9841 23.1991 69.6321 23.1991Z" fill="white"/>
<path fill-rule="evenodd" clip-rule="evenodd" d="M12.0057 33.8371L11.9307 33.7651C11.6407 33.4571 11.4688 32.9801 11.4688 32.3601V32.5061V10.3901C11.4688 10.3881 11.4688 10.3871 11.4688 10.3851C11.4688 10.3871 11.4688 10.3891 11.4688 10.3901V10.5371C11.4688 9.86611 11.6688 9.36111 12.0048 9.05811L24.3937 21.4481L12.0057 33.8371Z" fill="#00D6FF"/>
<path fill-rule="evenodd" clip-rule="evenodd" d="M28.6176 25.6724L33.5106 22.8924C33.9766 22.6274 34.2876 22.3054 34.4426 21.9654C34.2876 22.3054 33.9776 22.6274 33.5106 22.8924L28.6176 25.6724ZM28.5246 25.5794L24.3936 21.4484L28.5246 17.3174L33.5106 20.1504C34.1436 20.5104 34.4996 20.9744 34.5586 21.4474C34.5586 21.4484 34.5586 21.4484 34.5586 21.4494C34.4996 21.9224 34.1436 22.3864 33.5106 22.7464L28.5246 25.5794Z" fill="#FFCA00"/>
<path fill-rule="evenodd" clip-rule="evenodd" d="M12.8889 34.3082C12.5429 34.3082 12.2409 34.1962 12.0049 33.9832C12.2399 34.1952 12.5429 34.3082 12.8889 34.3082ZM12.8889 34.1622C12.5429 34.1622 12.2409 34.0492 12.0059 33.8372L24.3939 21.4482L28.5249 25.5792L14.0099 33.8262C13.6079 34.0542 13.2279 34.1622 12.8889 34.1622Z" fill="#F93647"/>
<path fill-rule="evenodd" clip-rule="evenodd" d="M24.3939 21.4484L12.0049 9.05838C12.2399 8.84638 12.5419 8.73438 12.8879 8.73438C13.2259 8.73438 13.6069 8.84238 14.0099 9.07038L28.5249 17.3174L24.3939 21.4484ZM14.0099 8.92438C13.6079 8.69638 13.2259 8.58838 12.8879 8.58838C12.8859 8.58838 12.8849 8.58838 12.8829 8.58838C12.8849 8.58838 12.8869 8.58838 12.8889 8.58838C13.2269 8.58838 13.6079 8.69538 14.0099 8.92438Z" fill="#00F076"/>
<mask id="mask0_501_7223" style="mask-type:alpha" maskUnits="userSpaceOnUse" x="11" y="25" width="18" height="10">
<path d="M12.8906 34.3081C12.5446 34.3081 12.2416 34.1951 12.0066 33.9831C12.0066 33.9821 12.0036 33.9821 12.0026 33.9811L11.9386 33.9181C11.9366 33.9161 11.9346 33.9131 11.9326 33.9111L12.0066 33.8371C12.2416 34.0491 12.5436 34.1621 12.8896 34.1621C13.2286 34.1621 13.6086 34.0541 14.0106 33.8261L28.5256 25.5791L28.6186 25.6721L28.5246 25.7251L14.0106 33.9721C13.6446 34.1801 13.2966 34.2881 12.9816 34.3061C12.9506 34.3081 12.9206 34.3081 12.8906 34.3081Z" fill="white"/>
</mask>
<g mask="url(#mask0_501_7223)">
<path fill-rule="evenodd" clip-rule="evenodd" d="M12.8906 34.3081C12.5446 34.3081 12.2416 34.1951 12.0066 33.9831C12.0066 33.9821 12.0036 33.9821 12.0026 33.9811L11.9386 33.9181C11.9366 33.9161 11.9346 33.9131 11.9326 33.9111L12.0066 33.8371C12.2416 34.0491 12.5436 34.1621 12.8896 34.1621C13.2286 34.1621 13.6086 34.0541 14.0106 33.8261L28.5256 25.5791L28.6186 25.6721L28.5246 25.7251L14.0106 33.9721C13.6446 34.1801 13.2966 34.2881 12.9816 34.3061C12.9506 34.3081 12.9206 34.3081 12.8906 34.3081Z" fill="url(#paint0_linear_501_7223)"/>
</g>
<path fill-rule="evenodd" clip-rule="evenodd" d="M34.4434 21.9652C34.5204 21.7962 34.5594 21.6232 34.5594 21.4492V21.4482C34.5594 21.6222 34.5204 21.7962 34.4434 21.9652Z" fill="black"/>
<path fill-rule="evenodd" clip-rule="evenodd" d="M34.5592 21.4481C34.5582 20.9251 34.2092 20.4011 33.5112 20.0051L28.6182 17.2241L33.5112 20.0041C34.2102 20.4011 34.5602 20.9251 34.5592 21.4481Z" fill="#404040"/>
<path fill-rule="evenodd" clip-rule="evenodd" d="M11.4746 10.2124C11.5316 9.18538 12.0906 8.59138 12.8806 8.58838C12.5386 8.58938 12.2396 8.70238 12.0056 8.91238L12.0036 8.91538C11.9786 8.93738 11.9546 8.96138 11.9316 8.98538C11.6696 9.26338 11.5036 9.67938 11.4746 10.2124Z" fill="#404040"/>
</g>
<defs>
<linearGradient id="paint0_linear_501_7223" x1="26.3236" y1="28.2467" x2="11.8303" y2="42.74" gradientUnits="userSpaceOnUse">
<stop stop-color="#CC2D36"/>
<stop offset="1" stop-color="#9C0E4E"/>
</linearGradient>
<clipPath id="clip0_501_7223">
<rect width="136" height="41" fill="white" transform="translate(0.832031 0.947266)"/>
</clipPath>
</defs>
</svg>
