<svg width="144" height="21" viewBox="0 0 144 21" fill="none" xmlns="http://www.w3.org/2000/svg">
<g clip-path="url(#clip0_501_7018)">
<mask id="mask0_501_7018" style="mask-type:luminance" maskUnits="userSpaceOnUse" x="0" y="0" width="144" height="21">
<path d="M143.5 0.947266H0.5V20.9473H143.5V0.947266Z" fill="white"/>
</mask>
<g mask="url(#mask0_501_7018)">
<path d="M43.8873 20.2444L44.553 17.9277H31.6977L31.041 20.2444H43.8873Z" fill="#FFBF00"/>
<path d="M142.618 3.82951C142.582 3.95522 142.033 5.89483 142.033 5.89483C141.988 6.0385 141.916 6.14626 141.772 6.14626C141.611 6.14626 138.741 6.14626 138.741 6.14626V16.6883C138.741 16.832 138.615 16.9667 138.462 16.9667H136.105C135.961 16.9667 135.862 16.841 135.862 16.6883V6.14626H132.246C132.066 6.14626 131.94 5.98463 131.985 5.81401C132.021 5.67034 132.534 3.88339 132.57 3.73073C132.615 3.57808 132.696 3.48828 132.839 3.48828H142.366C142.546 3.49726 142.663 3.6589 142.618 3.82951Z" fill="#121212"/>
<path d="M130.006 3.81185L129.448 5.7784C129.394 5.97595 129.34 6.07472 129.169 6.07472H124.581V8.8674H129.187C129.376 8.8674 129.502 9.01107 129.457 9.19067L128.908 11.1303C128.863 11.2919 128.755 11.3458 128.629 11.3458H124.581V14.3809H129.718C129.925 14.3809 130.051 14.5426 130.006 14.7042L129.439 16.6887C129.376 16.8863 129.331 16.9671 129.142 16.9671L121.999 16.9581C121.819 16.9581 121.702 16.8504 121.702 16.6797V3.77593C121.702 3.6143 121.81 3.49756 121.999 3.49756H129.727C129.925 3.49756 130.042 3.66818 130.006 3.81185Z" fill="#121212"/>
<path d="M118.976 6.95473V7.13432C118.976 8.46331 118.275 9.46904 117.114 9.927C118.5 10.1874 119.399 11.3638 119.399 12.9801V13.1867C119.399 15.4316 118.032 16.9581 115.09 16.9581H109.909C109.729 16.9581 109.612 16.8504 109.612 16.6797V3.77593C109.612 3.6143 109.72 3.49756 109.909 3.49756H115C117.627 3.49756 118.976 4.84451 118.976 6.95473ZM112.49 8.8225H114.577C115.72 8.8225 116.179 8.19392 116.179 7.45759V7.3229C116.179 6.58656 115.72 5.97595 114.577 5.97595H112.49V8.8225ZM112.49 14.4797H114.757C115.792 14.4797 116.53 14.0218 116.53 13.025V12.8005C116.53 11.8217 115.828 11.3099 114.757 11.3099H112.49V14.4797Z" fill="#121212"/>
<path d="M101.115 20.523C100.938 20.523 100.796 20.3703 100.796 20.1817V1.28849C100.796 1.09992 100.938 0.947266 101.115 0.947266C101.291 0.947266 101.434 1.09992 101.434 1.28849V20.1817C101.434 20.3703 101.291 20.523 101.115 20.523Z" fill="#121212"/>
<path d="M87.4461 10.2234H85.494C85.8538 8.96626 86.2137 8.80463 86.8524 8.82258C87.743 8.84054 87.68 9.41524 87.4461 10.2234ZM80.4562 10.3401L79.6916 13.0879C79.4757 13.8601 79.3497 14.4797 79.4127 14.9646C79.6016 16.4732 81.2569 17.003 85.2331 16.9851C87.2482 16.9671 89.3443 16.4732 90.8106 15.683L91.5303 13.1507H86.5285L86.4206 13.5189C86.1057 14.6593 85.512 14.6414 85.1701 14.6234C84.3605 14.6054 84.3785 14.1385 84.5764 13.465L84.8283 12.5311H91.7012L92.3759 10.1426C93.2215 7.09849 91.3144 6.46094 87.3741 6.46094C82.0485 6.46992 81.095 8.14013 80.4562 10.3401Z" fill="#121212"/>
<path d="M80.2486 6.44287L80.8244 6.48777L79.8708 9.93596C78.0716 9.93596 77.244 10.3041 76.8032 11.8666L76.5243 12.8453C76.3534 13.4739 75.8496 14.0845 76.7762 14.5156L76.1375 16.7784H69.8223L70.461 14.4886C70.7579 14.3719 71.1357 14.2641 71.4596 13.1507L72.2692 10.2862C72.5031 9.43309 72.5481 9.26248 72.0353 8.95717L72.674 6.65838H78.0356L77.8017 7.45757C78.6743 6.63144 79.313 6.44287 80.2486 6.44287Z" fill="#121212"/>
<path d="M63.4262 13.2494L64.2268 10.331C64.4787 9.48693 64.6676 8.81346 65.6032 8.82244C66.2149 8.82244 66.4758 9.09183 66.116 10.331L65.3153 13.2494C64.9105 14.6592 64.4697 14.6413 63.9569 14.6233C63.0663 14.6054 63.1563 14.1743 63.4262 13.2494ZM70.3981 12.9262L71.1357 10.3041C71.9364 7.43059 71.0278 6.44283 65.945 6.46977C60.9343 6.50569 59.9987 7.7359 59.279 10.3041L58.5414 12.9262C57.6328 16.1499 58.5864 16.994 63.4982 16.985C67.9781 16.967 69.5075 16.0691 70.3981 12.9262Z" fill="#121212"/>
<path d="M54.152 9.96293C54.278 9.51395 54.305 9.2266 54.17 9.06497C54.0891 8.90333 53.8912 8.82252 53.5583 8.82252C52.8566 8.82252 52.5867 9.00211 52.2809 10.0886L51.3813 13.3034C51.0664 14.4528 51.3003 14.5965 51.93 14.6144C52.5238 14.6144 52.9016 14.4348 53.3064 12.9981L53.4594 12.4683H58.1463L57.2736 15.5932C55.9153 16.4283 53.9631 16.9581 51.0304 16.9761C46.0557 16.994 45.8667 15.2789 46.4155 13.2675L47.3691 9.90905C47.9628 7.78986 49.2312 6.47883 53.8552 6.46087C56.8059 6.44291 58.4341 7.00863 59.4687 7.70904L58.704 10.4658H54.0171L54.0981 10.1425L54.152 9.96293Z" fill="#121212"/>
<path d="M41.071 6.29004C39.9555 6.27208 39.6766 7.24189 39.7396 7.56516C39.8835 8.31945 42.2675 8.59782 43.5269 8.93904C46.0188 9.63946 46.3606 10.9056 45.8748 12.5669L45.8568 12.6297C45.1012 15.3326 42.9422 16.9489 38.1113 16.9669C35.5475 16.9849 33.6133 16.5179 32.3359 15.611L33.2895 12.1358H38.4622C38.3812 12.4681 38.2822 12.7824 38.2013 13.1056C38.1023 13.4379 37.9044 14.1652 39.0109 14.1832C39.4067 14.2012 40.0634 14.0126 40.3243 13.1865C40.6842 12.0101 39.9015 11.7946 37.7605 11.3816C35.6914 10.9775 33.4964 10.4925 34.333 7.47536C35.0887 4.77248 37.3467 3.50635 41.5748 3.50635C44.0667 3.50635 45.8838 3.85656 47.4941 4.86228L46.6395 7.91536H41.6917L41.7547 7.67291C42.0246 6.66719 41.8446 6.308 41.071 6.29004Z" fill="#121212"/>
<path d="M28.0186 10.6365H26.1924C26.5343 9.43327 26.8671 9.28061 27.4698 9.28959C28.2975 9.30755 28.2345 9.85531 28.0186 10.6365ZM21.4605 10.7443L20.7409 13.3305C20.543 14.0578 20.426 14.6415 20.48 15.0994C20.6599 16.5182 22.2072 17.0211 25.9495 17.0031C27.8387 16.9852 29.8088 16.5182 31.1852 15.7819L31.8599 13.3933H27.164L27.065 13.7435C26.7682 14.8121 26.2104 14.8031 25.8866 14.7852C25.1219 14.7672 25.1399 14.3272 25.3198 13.6986L25.5627 12.8186H32.0128L32.6515 10.5647C33.4522 7.68223 31.653 7.0806 27.9556 7.0806C22.9449 7.07162 22.0543 8.64306 21.4605 10.7443Z" fill="#121212"/>
<path d="M18.132 6.98169C19.8862 6.95475 21.2176 7.57435 20.6239 9.74743L19.6253 13.3214C19.3644 14.2463 19.3644 14.363 19.8232 14.5785L19.2295 16.7067H14.2367C14.2547 16.1051 14.1378 16.15 14.7135 14.1116L14.8125 13.7524L15.5861 10.9597C15.7211 10.4748 15.901 9.72947 14.7945 9.63967C14.5966 9.63967 14.3987 9.66661 14.1738 9.74743L13.1752 13.3214C12.9143 14.1834 12.8514 14.354 13.4001 14.5785L12.7974 16.7067H6.95898L7.55272 14.5785C8.22742 14.3181 8.27239 14.0936 8.47031 13.3842L10.2155 7.13435C10.3775 6.49679 10.4764 6.09271 9.95464 5.8772L10.5484 3.74902H15.829L14.7585 7.60129C15.4512 7.3319 16.3868 6.99965 18.132 6.98169Z" fill="#121212"/>
<path d="M8.82993 7.19703L8.20921 9.37011H6.6529L5.63636 13.0248C5.3215 14.1473 5.25853 14.4167 6.75186 14.5693L6.15813 16.7334L3.79219 16.8681C0.652595 17.0477 0.076853 16.2395 0.75155 13.833L1.984 9.37909H1.40826L2.01998 7.20601H2.59572L3.10849 5.34722L8.06527 4.33252L7.26463 7.20601H8.82993V7.19703Z" fill="#121212"/>
</g>
</g>
<defs>
<clipPath id="clip0_501_7018">
<rect width="143" height="20" fill="white" transform="translate(0.5 0.947266)"/>
</clipPath>
</defs>
</svg>
