<svg width="202" height="14" viewBox="0 0 202 14" fill="none" xmlns="http://www.w3.org/2000/svg">
<path d="M8.526 11.004H6.3L3.619 6.29299L2.121 8.09899V11.004H0V0.881989H2.121V5.51599L5.81 0.881989H8.155L5.082 4.80199L8.526 11.004Z" fill="white"/>
<path d="M11.7121 11.144C11.2501 11.144 10.8348 11.0577 10.4661 10.885C10.0974 10.7123 9.80576 10.4627 9.59109 10.136C9.37643 9.80466 9.26909 9.40332 9.26909 8.93199C9.26909 8.13866 9.56543 7.53666 10.1581 7.12599C10.7508 6.71066 11.6864 6.49599 12.9651 6.48199L13.8681 6.46799V6.03399C13.8681 5.70266 13.7701 5.44832 13.5741 5.27099C13.3828 5.08899 13.0841 5.00032 12.6781 5.00499C12.3794 5.00966 12.0948 5.07966 11.8241 5.21499C11.5581 5.35032 11.3761 5.58599 11.2781 5.92199H9.57709C9.60509 5.39932 9.75676 4.96999 10.0321 4.63399C10.3074 4.29332 10.6808 4.04132 11.1521 3.87799C11.6281 3.70999 12.1671 3.62599 12.7691 3.62599C13.5111 3.62599 14.1061 3.71932 14.5541 3.90599C15.0021 4.08799 15.3264 4.35166 15.5271 4.69699C15.7278 5.03766 15.8281 5.44366 15.8281 5.91499V11.004H14.1201L13.9521 9.75799C13.7048 10.2807 13.3944 10.6423 13.0211 10.843C12.6524 11.0437 12.2161 11.144 11.7121 11.144ZM12.3981 9.79999C12.5848 9.79999 12.7644 9.76732 12.9371 9.70199C13.1144 9.63199 13.2708 9.54099 13.4061 9.42899C13.5461 9.31232 13.6581 9.18166 13.7421 9.03699C13.8261 8.89232 13.8681 8.74299 13.8681 8.58899V7.51799L13.1331 7.53199C12.7924 7.53666 12.4751 7.57866 12.1811 7.65799C11.8871 7.73266 11.6491 7.85632 11.4671 8.02899C11.2898 8.20166 11.2011 8.43499 11.2011 8.72899C11.2011 9.06499 11.3178 9.32866 11.5511 9.51999C11.7844 9.70666 12.0668 9.79999 12.3981 9.79999Z" fill="white"/>
<path d="M21.733 5.18699H20.123L20.137 9.04399C20.137 9.22132 20.158 9.35432 20.2 9.44299C20.2467 9.52699 20.3167 9.58299 20.41 9.61099C20.508 9.63432 20.6317 9.64599 20.781 9.64599H21.754V10.906C21.6607 10.948 21.5137 10.9877 21.313 11.025C21.117 11.0623 20.8417 11.081 20.487 11.081C19.8524 11.081 19.36 10.9993 19.01 10.836C18.6647 10.6727 18.4244 10.444 18.289 10.15C18.1537 9.85599 18.086 9.51532 18.086 9.12799V5.18699H16.91V3.76599H18.156L18.667 1.58199H20.123V3.75899H21.733V5.18699Z" fill="white"/>
<path d="M25.301 3.76599V11.004H23.348V3.76599H25.301ZM25.322 0.88899V2.72999H23.334V0.88899H25.322Z" fill="white"/>
<path d="M28.8331 7.85399C28.8284 8.22266 28.8868 8.54466 29.0081 8.81999C29.1294 9.09066 29.3044 9.30066 29.5331 9.44999C29.7664 9.59466 30.0464 9.66699 30.3731 9.66699C30.7231 9.66699 31.0288 9.59232 31.2901 9.44299C31.5561 9.29366 31.7404 9.04866 31.8431 8.70799H33.6841C33.6048 9.22132 33.3994 9.65999 33.0681 10.024C32.7414 10.388 32.3448 10.6657 31.8781 10.857C31.4114 11.0483 30.9261 11.144 30.4221 11.144C29.7081 11.144 29.0781 10.9947 28.5321 10.696C27.9908 10.3927 27.5684 9.96566 27.2651 9.41499C26.9618 8.86432 26.8101 8.21566 26.8101 7.46899C26.8101 6.74566 26.9478 6.09466 27.2231 5.51599C27.4984 4.93266 27.8974 4.47299 28.4201 4.13699C28.9474 3.79632 29.5798 3.62599 30.3171 3.62599C31.0544 3.62599 31.6728 3.78232 32.1721 4.09499C32.6761 4.40299 33.0541 4.83466 33.3061 5.38999C33.5628 5.94066 33.6911 6.57766 33.6911 7.30099V7.85399H28.8331ZM28.8261 6.63599H31.7801C31.7801 6.34666 31.7264 6.08066 31.6191 5.83799C31.5118 5.59532 31.3484 5.40399 31.1291 5.26399C30.9144 5.12399 30.6438 5.05399 30.3171 5.05399C29.9998 5.05399 29.7291 5.13099 29.5051 5.28499C29.2858 5.43432 29.1178 5.63032 29.0011 5.87299C28.8844 6.11566 28.8261 6.36999 28.8261 6.63599Z" fill="white"/>
<path d="M38.2949 11.004V0.881989H42.0189C42.7563 0.881989 43.4166 1.01032 43.9999 1.26699C44.5833 1.51899 45.0429 1.89232 45.3789 2.38699C45.7196 2.88166 45.8899 3.48599 45.8899 4.19999C45.8899 4.87199 45.7406 5.44599 45.4419 5.92199C45.1433 6.39799 44.7233 6.76199 44.1819 7.01399C43.6453 7.26599 43.0129 7.39199 42.2849 7.39199H40.3529V11.004H38.2949ZM40.3319 5.80999H42.2289C42.7423 5.80999 43.1623 5.64666 43.4889 5.31999C43.8156 4.98866 43.9789 4.58032 43.9789 4.09499C43.9789 3.59099 43.8063 3.19199 43.4609 2.89799C43.1156 2.59932 42.6956 2.44999 42.2009 2.44999H40.3319V5.80999Z" fill="white"/>
<path d="M47.1687 11.004V3.76599H49.1357V5.48099C49.2524 5.11232 49.4157 4.79032 49.6257 4.51499C49.8404 4.23499 50.0994 4.01799 50.4027 3.86399C50.7061 3.70532 51.0491 3.62599 51.4317 3.62599C51.4971 3.62599 51.5577 3.63066 51.6137 3.63999C51.6744 3.64466 51.7187 3.65399 51.7467 3.66799V5.61399C51.7047 5.59532 51.6534 5.58366 51.5927 5.57899C51.5367 5.57432 51.4854 5.56966 51.4387 5.56499C51.0374 5.53232 50.6944 5.54399 50.4097 5.59999C50.1251 5.65599 49.8941 5.75166 49.7167 5.88699C49.5394 6.02232 49.4111 6.18799 49.3317 6.38399C49.2524 6.57999 49.2127 6.79932 49.2127 7.04199V11.004H47.1687Z" fill="white"/>
<path d="M55.9369 11.144C55.2276 11.144 54.6092 10.9923 54.0819 10.689C53.5592 10.3857 53.1532 9.95632 52.8639 9.40099C52.5792 8.84566 52.4369 8.18766 52.4369 7.42699C52.4369 6.66632 52.5792 6.00132 52.8639 5.43199C53.1532 4.86266 53.5592 4.41932 54.0819 4.10199C54.6092 3.78466 55.2299 3.62599 55.9439 3.62599C56.6579 3.62599 57.2762 3.78232 57.7989 4.09499C58.3216 4.40299 58.7252 4.84166 59.0099 5.41099C59.2946 5.98032 59.4369 6.65232 59.4369 7.42699C59.4369 8.15499 59.2969 8.79899 59.0169 9.35899C58.7416 9.91432 58.3426 10.3507 57.8199 10.668C57.3019 10.9853 56.6742 11.144 55.9369 11.144ZM55.9439 9.62499C56.3032 9.62499 56.5926 9.51999 56.8119 9.30999C57.0312 9.09999 57.1899 8.82466 57.2879 8.48399C57.3906 8.13866 57.4419 7.76299 57.4419 7.35699C57.4419 6.97432 57.3952 6.61266 57.3019 6.27199C57.2132 5.93132 57.0592 5.65599 56.8399 5.44599C56.6206 5.23599 56.3219 5.13099 55.9439 5.13099C55.5846 5.13099 55.2929 5.23132 55.0689 5.43199C54.8496 5.62799 54.6886 5.89632 54.5859 6.23699C54.4832 6.57299 54.4319 6.94632 54.4319 7.35699C54.4319 7.73499 54.4786 8.09899 54.5719 8.44899C54.6652 8.79432 54.8216 9.07666 55.0409 9.29599C55.2602 9.51532 55.5612 9.62499 55.9439 9.62499Z" fill="white"/>
<path d="M63.3846 11.144C63.0486 11.144 62.7172 11.0927 62.3906 10.99C62.0686 10.8873 61.7746 10.7357 61.5086 10.535C61.2426 10.3343 61.0279 10.087 60.8646 9.79299C60.7059 9.49899 60.6266 9.15832 60.6266 8.77099V3.76599H62.6706V8.51199C62.6706 8.84799 62.7802 9.12332 62.9996 9.33799C63.2189 9.55266 63.5409 9.65999 63.9656 9.65999C64.3669 9.65999 64.6842 9.55732 64.9176 9.35199C65.1556 9.14199 65.2746 8.85032 65.2746 8.47699V3.76599H67.2976V11.004H65.7576L65.5196 9.56899C65.4356 9.99366 65.2769 10.3203 65.0436 10.549C64.8149 10.773 64.5512 10.927 64.2526 11.011C63.9586 11.0997 63.6692 11.144 63.3846 11.144Z" fill="white"/>
<path d="M71.3127 11.13C70.7807 11.13 70.3584 11.067 70.0457 10.941C69.733 10.815 69.502 10.6493 69.3527 10.444C69.2034 10.234 69.1077 10.003 69.0657 9.75099C69.0237 9.49432 69.0027 9.23532 69.0027 8.97399V0.60199H71.0047V8.72199C71.0047 8.98799 71.0607 9.20499 71.1727 9.37299C71.2894 9.53632 71.5064 9.63666 71.8237 9.67399L72.1667 9.69499V10.955C72.0267 11.0017 71.8844 11.0413 71.7397 11.074C71.595 11.1113 71.4527 11.13 71.3127 11.13Z" fill="white"/>
<path d="M80.6605 11.004H78.5255L76.7964 8.64499L75.0604 11.004H72.9184L75.7045 7.23099L73.1635 3.76599H75.2985L76.8035 5.79599L78.3015 3.76599H80.4435L77.8815 7.23099L80.6605 11.004Z" fill="white"/>
<path d="M81.5552 12.964L82.3672 11.06L81.6532 10.997V9.01599H83.7182V10.759L82.3112 12.964H81.5552Z" fill="white"/>
<path d="M90.203 11.004V0.881989H93.626C94.3493 0.881989 94.9933 1.00332 95.558 1.24599C96.1227 1.48866 96.566 1.84799 96.888 2.32399C97.2147 2.79999 97.378 3.38566 97.378 4.08099C97.378 4.75299 97.2263 5.32699 96.923 5.80299C96.6243 6.27899 96.2067 6.64066 95.67 6.88799C95.1333 7.13532 94.5103 7.25899 93.801 7.25899H91.533V11.004H90.203ZM91.526 6.16699H93.773C94.4683 6.16699 95.033 5.97332 95.467 5.58599C95.901 5.19866 96.118 4.67132 96.118 4.00399C96.118 3.33199 95.894 2.82332 95.446 2.47799C94.998 2.13266 94.4193 1.95999 93.71 1.95999H91.526V6.16699Z" fill="white" fill-opacity="0.75"/>
<path d="M98.8511 11.004V3.76599H100.083V5.15899C100.204 4.81366 100.375 4.52899 100.594 4.30499C100.813 4.07632 101.063 3.90599 101.343 3.79399C101.628 3.68199 101.922 3.62599 102.225 3.62599C102.332 3.62599 102.437 3.63299 102.54 3.64699C102.643 3.66099 102.722 3.68432 102.778 3.71699V4.96999C102.708 4.93732 102.617 4.91632 102.505 4.90699C102.398 4.89299 102.307 4.88599 102.232 4.88599C101.943 4.86732 101.672 4.88599 101.42 4.94199C101.168 4.99332 100.946 5.08432 100.755 5.21499C100.564 5.34566 100.412 5.51832 100.3 5.73299C100.193 5.94299 100.139 6.19966 100.139 6.50299V11.004H98.8511Z" fill="white" fill-opacity="0.75"/>
<path d="M107.005 11.144C106.338 11.144 105.755 11.0017 105.255 10.717C104.756 10.4277 104.369 10.0053 104.093 9.44999C103.818 8.89466 103.68 8.21566 103.68 7.41299C103.68 6.65699 103.809 5.99432 104.065 5.42499C104.322 4.85566 104.698 4.41466 105.192 4.10199C105.692 3.78466 106.296 3.62599 107.005 3.62599C107.673 3.62599 108.251 3.77299 108.741 4.06699C109.236 4.35632 109.619 4.78332 109.889 5.34799C110.16 5.91266 110.295 6.60099 110.295 7.41299C110.295 8.15032 110.169 8.79899 109.917 9.35899C109.67 9.91899 109.301 10.3577 108.811 10.675C108.326 10.9877 107.724 11.144 107.005 11.144ZM107.005 10.122C107.439 10.122 107.806 10.0123 108.104 9.79299C108.403 9.57366 108.629 9.25866 108.783 8.84799C108.937 8.43732 109.014 7.94966 109.014 7.38499C109.014 6.86699 108.947 6.40266 108.811 5.99199C108.676 5.57666 108.459 5.24766 108.16 5.00499C107.866 4.76232 107.481 4.64099 107.005 4.64099C106.567 4.64099 106.196 4.75066 105.892 4.96999C105.589 5.18466 105.358 5.49732 105.199 5.90799C105.045 6.31866 104.968 6.81099 104.968 7.38499C104.968 7.89366 105.038 8.35566 105.178 8.77099C105.318 9.18632 105.538 9.51532 105.836 9.75799C106.135 10.0007 106.525 10.122 107.005 10.122Z" fill="white" fill-opacity="0.75"/>
<path d="M114.601 11.144C113.663 11.144 112.918 10.822 112.368 10.178C111.817 9.53399 111.542 8.59366 111.542 7.35699C111.542 6.60566 111.651 5.94999 111.871 5.38999C112.095 4.82999 112.426 4.39599 112.865 4.08799C113.303 3.77999 113.849 3.62599 114.503 3.62599C114.848 3.62599 115.154 3.67032 115.42 3.75899C115.69 3.84766 115.924 3.95966 116.12 4.09499C116.316 4.23032 116.474 4.37032 116.596 4.51499C116.722 4.65966 116.815 4.79266 116.876 4.91399V0.60199H118.178V11.004H117.191L117.051 9.51999C117.004 9.65999 116.929 9.82332 116.827 10.01C116.724 10.192 116.579 10.3717 116.393 10.549C116.206 10.7217 115.966 10.864 115.672 10.976C115.382 11.088 115.025 11.144 114.601 11.144ZM114.832 10.15C115.564 10.15 116.087 9.92832 116.4 9.48499C116.717 9.03699 116.876 8.30666 116.876 7.29399C116.871 6.72932 116.799 6.24866 116.659 5.85199C116.523 5.45532 116.309 5.15432 116.015 4.94899C115.725 4.73899 115.34 4.63399 114.86 4.63399C114.262 4.63399 113.777 4.84632 113.404 5.27099C113.03 5.69566 112.844 6.36999 112.844 7.29399C112.844 8.19932 113.012 8.90166 113.348 9.40099C113.688 9.90032 114.183 10.15 114.832 10.15Z" fill="white" fill-opacity="0.75"/>
<path d="M122.976 11.144C122.598 11.1393 122.241 11.0857 121.905 10.983C121.574 10.8757 121.28 10.7193 121.023 10.514C120.766 10.3087 120.563 10.0543 120.414 9.75099C120.269 9.44299 120.197 9.08599 120.197 8.67999V3.76599H121.492V8.54699C121.492 9.01832 121.637 9.40099 121.926 9.69499C122.22 9.98899 122.661 10.136 123.249 10.136C123.781 10.136 124.208 9.99832 124.53 9.72299C124.857 9.44299 125.02 9.02766 125.02 8.47699V3.76599H126.308V11.004H125.279L125.146 9.61799C125.057 9.98199 124.906 10.276 124.691 10.5C124.481 10.724 124.227 10.8897 123.928 10.997C123.634 11.0997 123.317 11.1487 122.976 11.144Z" fill="white" fill-opacity="0.75"/>
<path d="M131.212 3.62599C131.73 3.62599 132.196 3.72632 132.612 3.92699C133.027 4.12299 133.365 4.40299 133.627 4.76699C133.893 5.13099 134.058 5.56032 134.124 6.05499H132.976C132.934 5.80299 132.836 5.57199 132.682 5.36199C132.532 5.15199 132.334 4.98399 132.087 4.85799C131.839 4.73199 131.55 4.66899 131.219 4.66899C130.598 4.66899 130.094 4.89299 129.707 5.34099C129.319 5.78899 129.126 6.47499 129.126 7.39899C129.126 8.23432 129.303 8.90399 129.658 9.40799C130.017 9.90732 130.544 10.157 131.24 10.157C131.571 10.157 131.858 10.094 132.101 9.96799C132.348 9.83732 132.546 9.66699 132.696 9.45699C132.845 9.24232 132.941 9.01366 132.983 8.77099H134.11C134.049 9.25632 133.886 9.67632 133.62 10.031C133.354 10.3857 133.013 10.661 132.598 10.857C132.187 11.0483 131.725 11.144 131.212 11.144C130.563 11.144 129.987 11.0017 129.483 10.717C128.983 10.4323 128.591 10.0123 128.307 9.45699C128.022 8.90166 127.88 8.22032 127.88 7.41299C127.88 6.65699 128.008 5.99666 128.265 5.43199C128.526 4.86266 128.904 4.41932 129.399 4.10199C129.898 3.78466 130.502 3.62599 131.212 3.62599Z" fill="white" fill-opacity="0.75"/>
<path d="M139.319 4.71099H137.688V9.21199C137.688 9.46866 137.714 9.65766 137.765 9.77899C137.821 9.89566 137.912 9.97032 138.038 10.003C138.169 10.0357 138.346 10.052 138.57 10.052H139.361V10.92C139.273 10.9527 139.137 10.9807 138.955 11.004C138.778 11.0273 138.556 11.039 138.29 11.039C137.791 11.039 137.404 10.9713 137.128 10.836C136.853 10.7007 136.659 10.5 136.547 10.234C136.44 9.96799 136.386 9.64132 136.386 9.25399V4.71099H135.21V3.76599H136.421L136.736 1.65899H137.688V3.75899H139.319V4.71099Z" fill="white" fill-opacity="0.75"/>
<path d="M144.672 0.881989C144.704 0.881989 144.802 0.884323 144.966 0.88899C145.134 0.88899 145.337 0.88899 145.575 0.88899C145.813 0.884323 146.06 0.884323 146.317 0.88899C146.573 0.88899 146.809 0.891323 147.024 0.895989C148.265 0.914656 149.271 1.11766 150.041 1.50499C150.815 1.88766 151.382 2.44532 151.742 3.17799C152.106 3.91066 152.288 4.81132 152.288 5.87999C152.288 6.99999 152.092 7.94032 151.7 8.70099C151.312 9.46166 150.72 10.0357 149.922 10.423C149.128 10.8103 148.118 11.004 146.891 11.004H144.672V0.881989ZM146.002 1.99499V9.89099H146.891C147.726 9.89099 148.445 9.76266 149.047 9.50599C149.649 9.24466 150.111 8.82232 150.433 8.23899C150.759 7.65566 150.923 6.87632 150.923 5.90099C150.923 4.92566 150.764 4.15332 150.447 3.58399C150.134 3.01466 149.681 2.60866 149.089 2.36599C148.496 2.11866 147.782 1.99499 146.947 1.99499H146.002Z" fill="white" fill-opacity="0.75"/>
<path d="M155.037 7.68599C155.037 8.14332 155.111 8.55866 155.261 8.93199C155.415 9.30066 155.646 9.59466 155.954 9.81399C156.266 10.0333 156.656 10.143 157.123 10.143C157.585 10.143 157.981 10.0357 158.313 9.82099C158.649 9.60632 158.863 9.29599 158.957 8.88999H160.182C160.093 9.37999 159.897 9.79299 159.594 10.129C159.29 10.465 158.924 10.7193 158.495 10.892C158.065 11.06 157.617 11.144 157.151 11.144C156.474 11.144 155.879 10.997 155.366 10.703C154.852 10.409 154.451 9.98666 154.162 9.43599C153.872 8.88532 153.728 8.22499 153.728 7.45499C153.728 6.69432 153.858 6.02699 154.12 5.45299C154.381 4.87899 154.759 4.43099 155.254 4.10899C155.753 3.78699 156.353 3.62599 157.053 3.62599C157.734 3.62599 158.31 3.77299 158.782 4.06699C159.253 4.36099 159.61 4.77632 159.853 5.31299C160.1 5.84499 160.224 6.47732 160.224 7.20999V7.68599H155.037ZM155.044 6.81099H158.978C158.978 6.39566 158.908 6.02232 158.768 5.69099C158.628 5.35499 158.413 5.09132 158.124 4.89999C157.839 4.70399 157.48 4.60599 157.046 4.60599C156.593 4.60599 156.217 4.71566 155.919 4.93499C155.625 5.14966 155.403 5.42732 155.254 5.76799C155.109 6.10399 155.039 6.45166 155.044 6.81099Z" fill="white" fill-opacity="0.75"/>
<path d="M164.529 11.144C164.025 11.144 163.556 11.067 163.122 10.913C162.693 10.7543 162.336 10.5093 162.051 10.178C161.767 9.84199 161.587 9.41499 161.512 8.89699H162.688C162.754 9.18166 162.87 9.41966 163.038 9.61099C163.211 9.79766 163.426 9.93999 163.682 10.038C163.939 10.1313 164.219 10.178 164.522 10.178C165.008 10.178 165.4 10.087 165.698 9.90499C165.997 9.72299 166.146 9.44299 166.146 9.06499C166.146 8.79899 166.067 8.58666 165.908 8.42799C165.754 8.26466 165.514 8.14566 165.187 8.07099L163.689 7.69999C163.106 7.55999 162.639 7.34066 162.289 7.04199C161.939 6.74332 161.764 6.32566 161.764 5.78899C161.76 5.36432 161.86 4.99099 162.065 4.66899C162.271 4.34699 162.579 4.09266 162.989 3.90599C163.4 3.71932 163.911 3.62599 164.522 3.62599C165.306 3.62599 165.939 3.80332 166.419 4.15799C166.905 4.50799 167.157 5.02366 167.175 5.70499H166.034C165.988 5.35966 165.831 5.08666 165.565 4.88599C165.304 4.68066 164.952 4.57799 164.508 4.57799C164.046 4.57799 163.671 4.67132 163.381 4.85799C163.092 5.03999 162.947 5.32466 162.947 5.71199C162.947 5.96866 163.05 6.17166 163.255 6.32099C163.461 6.46566 163.764 6.58699 164.165 6.68499L165.614 7.04899C165.95 7.13766 166.226 7.25432 166.44 7.39899C166.66 7.54366 166.832 7.70466 166.958 7.88199C167.089 8.05932 167.18 8.24599 167.231 8.44199C167.287 8.63332 167.315 8.81766 167.315 8.99499C167.315 9.43832 167.203 9.82099 166.979 10.143C166.76 10.4603 166.443 10.7077 166.027 10.885C165.617 11.0577 165.117 11.144 164.529 11.144Z" fill="white" fill-opacity="0.75"/>
<path d="M170.525 3.76599V11.004H169.272V3.76599H170.525ZM170.553 0.88899V2.23299H169.23V0.88899H170.553Z" fill="white" fill-opacity="0.75"/>
<path d="M175.827 13.398C174.688 13.398 173.802 13.2323 173.167 12.901C172.537 12.5743 172.222 12.1053 172.222 11.494C172.222 11.2327 172.283 11.011 172.404 10.829C172.525 10.6423 172.67 10.4883 172.838 10.367C173.006 10.2457 173.162 10.15 173.307 10.08C173.452 10.0053 173.545 9.95166 173.587 9.91899C173.508 9.87232 173.407 9.81399 173.286 9.74399C173.169 9.67399 173.067 9.58066 172.978 9.46399C172.889 9.34732 172.845 9.19566 172.845 9.00899C172.845 8.78032 172.952 8.57032 173.167 8.37899C173.382 8.18766 173.699 8.04532 174.119 7.95199C173.694 7.73732 173.363 7.45266 173.125 7.09799C172.887 6.74332 172.768 6.35832 172.768 5.94299C172.768 5.47632 172.894 5.07032 173.146 4.72499C173.403 4.37966 173.767 4.11599 174.238 3.93399C174.709 3.74732 175.269 3.65399 175.918 3.65399C176.389 3.65399 176.786 3.70999 177.108 3.82199C177.43 3.92932 177.729 4.08332 178.004 4.28399C178.079 4.25132 178.195 4.20232 178.354 4.13699C178.517 4.06699 178.697 3.99232 178.893 3.91299C179.089 3.83366 179.271 3.75899 179.439 3.68899C179.612 3.61432 179.749 3.55832 179.852 3.52099L179.845 4.71799L178.578 4.95599C178.648 5.10532 178.704 5.26866 178.746 5.44599C178.793 5.62332 178.816 5.78899 178.816 5.94299C178.816 6.36766 178.704 6.75266 178.48 7.09799C178.261 7.44332 177.927 7.71866 177.479 7.92399C177.031 8.12932 176.471 8.23199 175.799 8.23199C175.743 8.23199 175.671 8.23199 175.582 8.23199C175.498 8.22732 175.426 8.22266 175.365 8.21799C174.87 8.23199 174.53 8.28799 174.343 8.38599C174.156 8.47932 174.063 8.58432 174.063 8.70099C174.063 8.83632 174.168 8.92966 174.378 8.98099C174.588 9.03232 174.945 9.07666 175.449 9.11399C175.631 9.12332 175.855 9.13499 176.121 9.14899C176.392 9.16299 176.69 9.18166 177.017 9.20499C177.778 9.25166 178.363 9.44532 178.774 9.78599C179.185 10.1267 179.39 10.5863 179.39 11.165C179.39 11.823 179.096 12.3597 178.508 12.775C177.92 13.1903 177.026 13.398 175.827 13.398ZM176.058 12.565C176.725 12.565 177.236 12.4647 177.591 12.264C177.946 12.0633 178.123 11.76 178.123 11.354C178.123 11.0647 178.013 10.829 177.794 10.647C177.579 10.4603 177.25 10.353 176.807 10.325L174.777 10.192C174.595 10.1827 174.406 10.2293 174.21 10.332C174.014 10.43 173.846 10.5677 173.706 10.745C173.571 10.9223 173.503 11.123 173.503 11.347C173.503 11.7297 173.711 12.0283 174.126 12.243C174.546 12.4577 175.19 12.565 176.058 12.565ZM175.834 7.39899C176.357 7.39899 176.777 7.27766 177.094 7.03499C177.416 6.79232 177.577 6.43299 177.577 5.95699C177.577 5.46699 177.416 5.09366 177.094 4.83699C176.777 4.58032 176.357 4.45199 175.834 4.45199C175.307 4.45199 174.88 4.58266 174.553 4.84399C174.231 5.10066 174.07 5.47166 174.07 5.95699C174.07 6.41432 174.224 6.76899 174.532 7.02099C174.84 7.27299 175.274 7.39899 175.834 7.39899Z" fill="white" fill-opacity="0.75"/>
<path d="M181.47 11.004V3.76599H182.723V4.81599C182.84 4.61532 183.001 4.42632 183.206 4.24899C183.416 4.07166 183.668 3.92932 183.962 3.82199C184.261 3.71466 184.604 3.66099 184.991 3.66099C185.449 3.66099 185.869 3.75199 186.251 3.93399C186.639 4.11599 186.947 4.40066 187.175 4.78799C187.409 5.17066 187.525 5.66532 187.525 6.27199V11.004H186.23V6.39799C186.23 5.83332 186.081 5.41566 185.782 5.14499C185.488 4.86966 185.106 4.73199 184.634 4.73199C184.308 4.73199 184.002 4.78566 183.717 4.89299C183.433 4.99566 183.202 5.15432 183.024 5.36899C182.847 5.57899 182.758 5.84499 182.758 6.16699V11.004H181.47Z" fill="white" fill-opacity="0.75"/>
<path d="M190.474 7.68599C190.474 8.14332 190.549 8.55866 190.698 8.93199C190.852 9.30066 191.083 9.59466 191.391 9.81399C191.704 10.0333 192.094 10.143 192.56 10.143C193.022 10.143 193.419 10.0357 193.75 9.82099C194.086 9.60632 194.301 9.29599 194.394 8.88999H195.619C195.531 9.37999 195.335 9.79299 195.031 10.129C194.728 10.465 194.362 10.7193 193.932 10.892C193.503 11.06 193.055 11.144 192.588 11.144C191.912 11.144 191.317 10.997 190.803 10.703C190.29 10.409 189.889 9.98666 189.599 9.43599C189.31 8.88532 189.165 8.22499 189.165 7.45499C189.165 6.69432 189.296 6.02699 189.557 5.45299C189.819 4.87899 190.197 4.43099 190.691 4.10899C191.191 3.78699 191.79 3.62599 192.49 3.62599C193.172 3.62599 193.748 3.77299 194.219 4.06699C194.691 4.36099 195.048 4.77632 195.29 5.31299C195.538 5.84499 195.661 6.47732 195.661 7.20999V7.68599H190.474ZM190.481 6.81099H194.415C194.415 6.39566 194.345 6.02232 194.205 5.69099C194.065 5.35499 193.851 5.09132 193.561 4.89999C193.277 4.70399 192.917 4.60599 192.483 4.60599C192.031 4.60599 191.655 4.71566 191.356 4.93499C191.062 5.14966 190.841 5.42732 190.691 5.76799C190.547 6.10399 190.477 6.45166 190.481 6.81099Z" fill="white" fill-opacity="0.75"/>
<path d="M197.439 11.004V3.76599H198.671V5.15899C198.792 4.81366 198.963 4.52899 199.182 4.30499C199.401 4.07632 199.651 3.90599 199.931 3.79399C200.216 3.68199 200.51 3.62599 200.813 3.62599C200.92 3.62599 201.025 3.63299 201.128 3.64699C201.231 3.66099 201.31 3.68432 201.366 3.71699V4.96999C201.296 4.93732 201.205 4.91632 201.093 4.90699C200.986 4.89299 200.895 4.88599 200.82 4.88599C200.531 4.86732 200.26 4.88599 200.008 4.94199C199.756 4.99332 199.534 5.08432 199.343 5.21499C199.152 5.34566 199 5.51832 198.888 5.73299C198.781 5.94299 198.727 6.19966 198.727 6.50299V11.004H197.439Z" fill="white" fill-opacity="0.75"/>
</svg>
