<svg width="140" height="27" viewBox="0 0 140 27" fill="none" xmlns="http://www.w3.org/2000/svg">
<path fill-rule="evenodd" clip-rule="evenodd" d="M118.217 6.60318C117.276 6.60318 116.502 6.33126 115.895 5.78743C115.309 5.22268 115.017 4.53244 115.017 3.71669C115.017 2.88003 115.309 2.18978 115.895 1.64595C116.502 1.0812 117.276 0.798828 118.217 0.798828C119.137 0.798828 119.89 1.0812 120.476 1.64595C121.082 2.18978 121.386 2.88003 121.386 3.71669C121.386 4.53244 121.082 5.22268 120.476 5.78743C119.89 6.33126 119.137 6.60318 118.217 6.60318ZM120.884 25.9301H115.519V8.42292H120.884V25.9301ZM113.546 25.9301V2.7127H108.181V25.9301H113.546ZM47.4621 14.6351C48.738 14.9071 49.7629 15.545 50.5368 16.549C51.3107 17.5321 51.6977 18.6616 51.6977 19.9375C51.6977 21.7781 51.0493 23.2423 49.7524 24.33C48.4765 25.3967 46.6882 25.9301 44.3873 25.9301H34.1278V3.90494H44.0422C46.2803 3.90494 48.0268 4.4174 49.2818 5.44231C50.5577 6.46722 51.1957 7.85817 51.1957 9.61516C51.1957 10.912 50.8505 11.9892 50.1603 12.8468C49.491 13.7044 48.5916 14.3005 47.4621 14.6351ZM39.4929 12.8154H43.0068C43.8853 12.8154 44.5547 12.6271 45.0148 12.2507C45.4959 11.8532 45.7365 11.278 45.7365 10.525C45.7365 9.77204 45.4959 9.19683 45.0148 8.79942C44.5547 8.402 43.8853 8.2033 43.0068 8.2033H39.4929V12.8154ZM43.4461 21.6004C44.3455 21.6004 45.0357 21.4017 45.5168 21.0042C46.0188 20.5859 46.2698 19.9898 46.2698 19.2159C46.2698 18.442 46.0084 17.8354 45.4855 17.3961C44.9835 16.9569 44.2827 16.7373 43.3833 16.7373H39.4929V21.6004H43.4461ZM70.5463 16.8941C70.5463 17.3961 70.515 17.919 70.4522 18.4629H58.3102C58.3938 19.5505 58.7389 20.3872 59.3455 20.9729C59.973 21.5376 60.7365 21.82 61.6359 21.82C62.9745 21.82 63.9053 21.2552 64.4282 20.1257H70.1385C69.8456 21.2761 69.3123 22.3115 68.5384 23.2318C67.7854 24.1522 66.8336 24.8738 65.6832 25.3967C64.5328 25.9196 63.2465 26.1811 61.8241 26.1811C60.109 26.1811 58.5821 25.815 57.2434 25.083C55.9047 24.3509 54.8589 23.3051 54.1059 21.9455C53.3529 20.5859 52.9764 18.9962 52.9764 17.1765C52.9764 15.3568 53.3425 13.7671 54.0745 12.4075C54.8275 11.0479 55.8734 10.0021 57.212 9.27004C58.5507 8.53796 60.0881 8.17192 61.8241 8.17192C63.5184 8.17192 65.0244 8.5275 66.3421 9.23867C67.6599 9.94983 68.6848 10.9643 69.4168 12.282C70.1698 13.5998 70.5463 15.1371 70.5463 16.8941ZM65.0557 15.4823C65.0557 14.5619 64.742 13.8299 64.1145 13.286C63.487 12.7422 62.7026 12.4703 61.7614 12.4703C60.862 12.4703 60.0985 12.7317 59.471 13.2546C58.8644 13.7776 58.4879 14.5201 58.3415 15.4823H65.0557ZM82.7494 8.42292L78.953 20.9101L75.1567 8.42292H69.4151L75.6273 25.9301H82.2474L88.4596 8.42292H82.7494ZM87.7355 17.1451C87.7355 15.3463 88.0702 13.7671 88.7395 12.4075C89.4297 11.0479 90.3605 10.0021 91.5319 9.27004C92.7032 8.53796 94.0105 8.17192 95.4537 8.17192C96.6878 8.17192 97.765 8.42292 98.6853 8.92492C99.6266 9.42691 100.348 10.0858 100.85 10.9015V8.42292H106.215V25.9301H100.85V23.4515C100.327 24.2672 99.5952 24.9261 98.6539 25.4281C97.7336 25.9301 96.6564 26.1811 95.4223 26.1811C94 26.1811 92.7032 25.815 91.5319 25.083C90.3605 24.33 89.4297 23.2737 88.7395 21.9141C88.0702 20.5336 87.7355 18.944 87.7355 17.1451ZM100.85 17.1765C100.85 15.8378 100.474 14.7816 99.7207 14.0076C98.9886 13.2337 98.0892 12.8468 97.0224 12.8468C95.9557 12.8468 95.0458 13.2337 94.2928 14.0076C93.5608 14.7606 93.1947 15.8065 93.1947 17.1451C93.1947 18.4838 93.5608 19.5505 94.2928 20.3454C95.0458 21.1193 95.9557 21.5062 97.0224 21.5062C98.0892 21.5062 98.9886 21.1193 99.7207 20.3454C100.474 19.5715 100.85 18.5152 100.85 17.1765ZM130.619 21.067L133.976 25.9301H140L133.976 17.2393L139.843 8.42292H134.039L131.215 13.2546L127.858 8.42292H121.834L127.764 16.9883L121.991 25.9301H127.795L130.619 21.067ZM14.5368 6.95138C10.3835 0.547654 0 2.68223 0 11.2205C0 17.6243 8.30677 22.146 8.30677 22.146C8.30677 22.146 13.3261 25.2962 14.5368 26.4083C15.7476 25.2962 20.7669 22.146 20.7669 22.146C20.7669 22.146 29.0737 17.6243 29.0737 11.2205C29.0737 2.68223 18.6902 0.547654 14.5368 6.95138ZM14.5368 10.7379C12.2821 7.24498 6.64541 8.40929 6.64541 13.0665C6.64541 16.5595 11.1548 19.0259 11.1548 19.0259C11.1548 19.0259 13.8796 20.7442 14.5368 21.3508C15.1941 20.7442 17.9189 19.0259 17.9189 19.0259C17.9189 19.0259 22.4283 16.5595 22.4283 13.0665C22.4283 8.40929 16.7915 7.24498 14.5368 10.7379Z" fill="#E85F4A"/>
</svg>
