<svg width="40" height="41" viewBox="0 0 40 41" fill="none" xmlns="http://www.w3.org/2000/svg">
<rect y="0.486816" width="40" height="40" rx="20" fill="#EEF1F0"/>
<g clip-path="url(#clip0_603_9457)">
<path d="M29 21.2368C28.6184 25.8568 24.7184 29.4868 20 29.4868C17.6131 29.4868 15.3239 28.5386 13.636 26.8508C11.9482 25.1629 11 22.8738 11 20.4868C11 15.7684 14.63 11.8684 19.25 11.4868" stroke="#57736C" stroke-linecap="round" stroke-linejoin="round"/>
<path d="M20 15.2368V20.4868H25.25" stroke="#57736C" stroke-linecap="round" stroke-linejoin="round"/>
<path d="M22.875 12.2368C22.875 12.3749 22.7631 12.4868 22.625 12.4868C22.4869 12.4868 22.375 12.3749 22.375 12.2368C22.375 12.0987 22.4869 11.9868 22.625 11.9868C22.7631 11.9868 22.875 12.0987 22.875 12.2368Z" fill="#313235" stroke="#57736C"/>
<path d="M26.25 14.4868C26.25 14.6249 26.1381 14.7368 26 14.7368C25.8619 14.7368 25.75 14.6249 25.75 14.4868C25.75 14.3487 25.8619 14.2368 26 14.2368C26.1381 14.2368 26.25 14.3487 26.25 14.4868Z" fill="#313235" stroke="#57736C"/>
<path d="M28.25 18.6118C28.6642 18.6118 29 18.276 29 17.8618C29 17.4476 28.6642 17.1118 28.25 17.1118C27.8358 17.1118 27.5 17.4476 27.5 17.8618C27.5 18.276 27.8358 18.6118 28.25 18.6118Z" fill="#313235"/>
</g>
<defs>
<clipPath id="clip0_603_9457">
<rect width="24" height="24" fill="white" transform="translate(8 8.48682)"/>
</clipPath>
</defs>
</svg>
