<svg width="40" height="41" viewBox="0 0 40 41" fill="none" xmlns="http://www.w3.org/2000/svg">
<rect y="0.486816" width="40" height="40" rx="20" fill="#EEF1F0"/>
<g clip-path="url(#clip0_643_15291)">
<path d="M17 23.4868H11.75C11.5511 23.4868 11.3603 23.4078 11.2197 23.2671C11.079 23.1265 11 22.9357 11 22.7368V18.2368C11 18.0379 11.079 17.8471 11.2197 17.7065C11.3603 17.5658 11.5511 17.4868 11.75 17.4868H17V12.2368C17 12.0379 17.079 11.8471 17.2197 11.7065C17.3603 11.5658 17.5511 11.4868 17.75 11.4868H22.25C22.4489 11.4868 22.6397 11.5658 22.7803 11.7065C22.921 11.8471 23 12.0379 23 12.2368V17.4868H28.25C28.4489 17.4868 28.6397 17.5658 28.7803 17.7065C28.921 17.8471 29 18.0379 29 18.2368V22.7368C29 22.9357 28.921 23.1265 28.7803 23.2671C28.6397 23.4078 28.4489 23.4868 28.25 23.4868H23V28.7368C23 28.9357 22.921 29.1265 22.7803 29.2671C22.6397 29.4078 22.4489 29.4868 22.25 29.4868H17.75C17.5511 29.4868 17.3603 29.4078 17.2197 29.2671C17.079 29.1265 17 28.9357 17 28.7368V23.4868Z" stroke="#57736C" stroke-linecap="round" stroke-linejoin="round"/>
</g>
<defs>
<clipPath id="clip0_643_15291">
<rect width="24" height="24" fill="white" transform="translate(8 8.48682)"/>
</clipPath>
</defs>
</svg>
