<svg width="40" height="41" viewBox="0 0 40 41" fill="none" xmlns="http://www.w3.org/2000/svg">
<rect y="0.486816" width="40" height="40" rx="20" fill="#EEF1F0"/>
<g clip-path="url(#clip0_603_9461)">
<path d="M20 14.4868C21.2426 14.4868 22.25 13.4795 22.25 12.2368C22.25 10.9942 21.2426 9.98682 20 9.98682C18.7574 9.98682 17.75 10.9942 17.75 12.2368C17.75 13.4795 18.7574 14.4868 20 14.4868Z" stroke="#57736C" stroke-linecap="round" stroke-linejoin="round"/>
<path d="M21.9846 15.9868C22.3039 15.9869 22.6195 16.0549 22.9104 16.1863C23.2014 16.3177 23.461 16.5095 23.6721 16.749L27.9209 21.5659C28.0255 21.6705 28.1086 21.7948 28.1652 21.9315C28.2218 22.0682 28.251 22.2148 28.251 22.3628C28.251 22.5107 28.2218 22.6573 28.1652 22.794C28.1086 22.9307 28.0255 23.055 27.9209 23.1596C27.8162 23.2643 27.692 23.3473 27.5553 23.4039C27.4186 23.4606 27.272 23.4897 27.124 23.4897C26.976 23.4897 26.8295 23.4606 26.6928 23.4039C26.556 23.3473 26.4318 23.2643 26.3271 23.1596L23 20.4868L25.144 28.6365C25.2651 28.9062 25.2751 29.2126 25.172 29.4896C25.0689 29.7667 24.8609 29.992 24.5931 30.1169C24.3252 30.2418 24.0189 30.2562 23.7404 30.1571C23.4619 30.0579 23.2337 29.8532 23.105 29.5871L20 24.2368L16.895 29.5871C16.7662 29.8532 16.538 30.0579 16.2595 30.1571C15.9811 30.2562 15.6748 30.2418 15.4069 30.1169C15.139 29.992 14.931 29.7667 14.8279 29.4896C14.7248 29.2126 14.7348 28.9062 14.8559 28.6365L17 20.4868L13.6709 23.1578C13.4596 23.3691 13.1729 23.4878 12.874 23.4878C12.5751 23.4878 12.2885 23.3691 12.0771 23.1578C11.8658 22.9464 11.7471 22.6598 11.7471 22.3609C11.7471 22.062 11.8658 21.7753 12.0771 21.564L16.3278 16.749C16.5389 16.5095 16.7985 16.3177 17.0895 16.1863C17.3804 16.0549 17.696 15.9869 18.0153 15.9868H21.9846Z" stroke="#57736C" stroke-linecap="round" stroke-linejoin="round"/>
</g>
<defs>
<clipPath id="clip0_603_9461">
<rect width="24" height="24" fill="white" transform="translate(8 8.48682)"/>
</clipPath>
</defs>
</svg>
