<svg width="40" height="40" viewBox="0 0 40 40" fill="none" xmlns="http://www.w3.org/2000/svg">
<rect width="40" height="40" rx="20" fill="#EEF1F0"/>
<g clip-path="url(#clip0_496_3939)">
<path d="M17 19.25C21.1421 19.25 24.5 17.739 24.5 15.875C24.5 14.011 21.1421 12.5 17 12.5C12.8579 12.5 9.5 14.011 9.5 15.875C9.5 17.739 12.8579 19.25 17 19.25Z" stroke="#57736C" stroke-linecap="round" stroke-linejoin="round"/>
<path d="M9.5 15.875V19.625C9.5 21.4887 12.8581 23 17 23C21.1419 23 24.5 21.4887 24.5 19.625V15.875" stroke="#57736C" stroke-linecap="round" stroke-linejoin="round"/>
<path d="M14 18.9688V22.7188" stroke="#57736C" stroke-linecap="round" stroke-linejoin="round"/>
<path d="M24.5001 17.0675C27.9239 17.3806 30.5001 18.7419 30.5001 20.375C30.5001 22.2388 27.142 23.75 23.0001 23.75C21.1626 23.75 19.4789 23.4528 18.1748 22.9588" stroke="#57736C" stroke-linecap="round" stroke-linejoin="round"/>
<path d="M15.5 22.9325V24.125C15.5 25.9887 18.8581 27.5 23 27.5C27.1419 27.5 30.5 25.9887 30.5 24.125V20.375" stroke="#57736C" stroke-linecap="round" stroke-linejoin="round"/>
<path d="M26 23.4688V27.2188" stroke="#57736C" stroke-linecap="round" stroke-linejoin="round"/>
<path d="M20 18.9688V27.2188" stroke="#57736C" stroke-linecap="round" stroke-linejoin="round"/>
</g>
<defs>
<clipPath id="clip0_496_3939">
<rect width="24" height="24" fill="white" transform="translate(8 8)"/>
</clipPath>
</defs>
</svg>
