<svg width="40" height="40" viewBox="0 0 40 40" fill="none" xmlns="http://www.w3.org/2000/svg">
<rect width="40" height="40" rx="20" fill="#EEF1F0"/>
<g clip-path="url(#clip0_506_13172)">
<path d="M20 23C22.0711 23 23.75 21.3211 23.75 19.25C23.75 17.1789 22.0711 15.5 20 15.5C17.9289 15.5 16.25 17.1789 16.25 19.25C16.25 21.3211 17.9289 23 20 23Z" stroke="#57736C" stroke-linecap="round" stroke-linejoin="round"/>
<path d="M13.9814 26.6909C14.5457 25.5794 15.4068 24.6459 16.4691 23.9938C17.5315 23.3418 18.7537 22.9966 20.0002 22.9966C21.2467 22.9966 22.4689 23.3418 23.5312 23.9938C24.5936 24.6459 25.4547 25.5794 26.0189 26.6909" stroke="#57736C" stroke-linecap="round" stroke-linejoin="round"/>
<path d="M26.75 20L29 22.25L31.25 20" stroke="#57736C" stroke-linecap="round" stroke-linejoin="round"/>
<path d="M8.75 20L11 17.75L13.25 20" stroke="#57736C" stroke-linecap="round" stroke-linejoin="round"/>
<path d="M11 17.75V20C10.9993 21.9055 11.6034 23.762 12.7252 25.3022C13.8471 26.8424 15.4289 27.9868 17.2427 28.5706C19.0566 29.1543 21.0089 29.1474 22.8185 28.5506C24.6282 27.9539 26.2017 26.7982 27.3125 25.25" stroke="#57736C" stroke-linecap="round" stroke-linejoin="round"/>
<path d="M29 22.2501V20.0001C29.0007 18.0946 28.3966 16.238 27.2748 14.6978C26.1529 13.1576 24.5711 12.0132 22.7573 11.4295C20.9434 10.8457 18.9911 10.8527 17.1815 11.4494C15.3718 12.0462 13.7983 13.2019 12.6875 14.7501" stroke="#57736C" stroke-linecap="round" stroke-linejoin="round"/>
</g>
<defs>
<clipPath id="clip0_506_13172">
<rect width="24" height="24" fill="white" transform="translate(8 8)"/>
</clipPath>
</defs>
</svg>
