<svg width="170" height="26" viewBox="0 0 170 26" fill="none" xmlns="http://www.w3.org/2000/svg">
<g clip-path="url(#clip0_790_14945)">
<path fill-rule="evenodd" clip-rule="evenodd" d="M160.9 17.0164H157.936L157.502 19.8905H160.47L160.9 17.0164Z" fill="#F6BE52"/>
<path fill-rule="evenodd" clip-rule="evenodd" d="M164.906 11.75H158.733L158.299 14.6242H164.475L164.906 11.75Z" fill="#40BBCF"/>
<path fill-rule="evenodd" clip-rule="evenodd" d="M169.509 6.48389H159.524L159.09 9.35811H169.08L169.509 6.48389Z" fill="#1585BB"/>
<path fill-rule="evenodd" clip-rule="evenodd" d="M35.9173 1.05524C37.2025 1.05524 37.6469 1.47671 37.6469 2.43643C37.6469 4.30903 36.8989 4.82416 35.3569 4.82416C34.0716 4.82416 33.6041 4.42581 33.6041 3.46668C33.6041 1.59348 34.3751 1.05524 35.9173 1.05524ZM9.86114 9.50493C9.39366 9.43498 8.87944 9.38815 8.50546 9.38815C7.40718 9.38815 6.56633 9.48181 5.95801 9.73967C4.20587 10.4884 3.76147 13.4143 3.76147 15.2639C3.76147 17.0896 4.3461 17.4643 5.65445 17.4643C6.5894 17.4643 7.7575 17.0427 8.80902 16.3172L9.86114 9.50493ZM13.5532 20.4369C13.512 20.4448 13.469 20.4531 13.4242 20.4618C13.0635 20.5319 12.5876 20.6243 11.9644 20.6243C10.4218 20.6243 9.60397 20.0392 9.27673 19.2899C7.96839 20.0623 6.37897 20.6243 4.76648 20.6243C1.82256 20.6243 0 19.501 0 16.0593C0 12.8292 0.794117 8.38151 4.34635 6.9772C5.53811 6.50891 7.05652 6.27475 9.04299 6.27475C10.9828 6.27475 12.8751 6.62627 13.9036 7.02344L12.5952 15.4979C12.5821 15.5716 12.5684 15.6468 12.5545 15.7223C12.4934 16.0548 12.4313 16.3927 12.4313 16.6212C12.4313 17.3705 12.7118 17.5815 13.974 17.5815L13.5532 20.4369ZM25.6581 9.50505C25.3309 9.41199 24.9338 9.36515 24.6065 9.36515C22.9941 9.36515 21.9195 9.52876 21.1946 10.1138C19.933 11.121 19.5821 13.6487 19.5821 15.3576C19.5821 16.8793 20.0732 17.0897 21.3816 17.0897C22.3633 17.0897 23.6255 16.7387 24.6995 16.0132L25.6581 9.50505ZM16.5681 21.7713C17.5031 22.0055 18.7646 22.3096 20.1901 22.3096C23.2513 22.3096 23.859 21.5372 24.069 20.2734L24.2098 19.4073C23.1814 19.8987 21.9429 20.226 20.7275 20.226C17.9001 20.226 15.797 19.4541 15.797 16.1298C15.797 13.1101 16.5214 8.73243 19.6996 7.18764C20.9381 6.57885 22.6204 6.27475 24.8868 6.27475C26.7798 6.27475 28.3923 6.67251 29.7711 7.1177L27.668 20.4838C27.0602 24.2528 24.6536 25.4466 20.0505 25.4466C18.8819 25.4466 17.0823 25.283 15.9136 24.8615L16.5681 21.7713ZM36.9689 6.46243H33.3232L31.1971 20.4374H34.8185L36.9689 6.46243ZM44.9505 1.29472H41.3048L38.4419 20.4375H42.0633L44.9505 1.29472ZM47.5314 7.60937C49.4949 6.8838 52.3684 6.27501 54.7519 6.27501C58.3042 6.27501 59.9634 7.23473 59.9864 9.17788C59.9864 9.43515 59.9634 9.69241 59.9397 9.95027L58.3278 20.4373H54.6585L56.0603 11.2609C56.0703 11.1259 56.0841 10.9988 56.0969 10.8812C56.1152 10.7139 56.1312 10.5656 56.1312 10.4417C56.1076 9.64558 55.6395 9.43515 54.1679 9.43515C52.9293 9.43515 51.4109 9.76295 50.8269 9.97398L49.2144 20.4373H45.5456L47.5314 7.60937ZM70.4326 16.949C69.8953 17.3704 69.171 17.6046 68.1425 17.6046C66.0633 17.6046 65.572 16.7622 65.572 14.9827C65.572 13.391 65.9461 11.1207 66.9739 10.0904C67.4887 9.57531 68.2597 9.29432 69.4041 9.29432C71.3439 9.29432 72.0215 10.1136 72.0215 11.7757C72.0215 13.4141 71.6475 15.9661 70.4326 16.949ZM64.5901 7.7496C62.4877 9.45801 61.8094 13.0396 61.8094 15.5447C61.8094 19.501 64.1231 20.6243 67.6748 20.6243C69.7311 20.6243 71.2502 20.2028 72.3952 19.4772C74.9663 17.8388 75.7603 14.0467 75.7603 11.2844C75.7603 7.37496 73.3769 6.27475 69.895 6.27475C67.4411 6.27475 65.7587 6.8136 64.5901 7.7496Z" fill="#003650"/>
<path d="M76.1934 19.481C76.1934 19.1532 76.2168 18.8411 76.2636 18.5445C76.3105 18.2324 76.4041 17.9592 76.5445 17.7251C76.7006 17.4754 76.9192 17.2803 77.2002 17.1397C77.4967 16.9837 77.8869 16.9056 78.3707 16.9056C78.9795 16.9056 79.4009 17.0071 79.635 17.2101C79.8848 17.3973 80.0096 17.7017 80.0096 18.1231C80.0096 18.4041 79.9862 18.6928 79.9394 18.9894C79.8925 19.286 79.7911 19.559 79.635 19.8088C79.4945 20.0429 79.2761 20.2381 78.9795 20.3941C78.6829 20.5502 78.2927 20.6282 77.8089 20.6282C77.1845 20.6282 76.7553 20.5424 76.5211 20.3707C76.3026 20.1834 76.1934 19.8869 76.1934 19.481Z" fill="#1585BB"/>
<path d="M84.1169 9.27318H82.0566L82.4781 6.46369H84.5383L85.03 3.44348H88.6823L88.1907 6.46369H92.0771L91.7494 9.27318H87.7693L86.7859 15.6648C86.6923 16.211 86.6455 16.6324 86.6455 16.9291C86.6455 17.1944 86.7001 17.3817 86.8094 17.4909C86.9185 17.5846 87.1215 17.6314 87.4181 17.6314C87.7146 17.6314 88.0736 17.5846 88.495 17.4909C88.9164 17.3972 89.3769 17.2881 89.8763 17.1631L90.251 19.7385C89.9232 19.8634 89.5642 19.9805 89.174 20.0897C88.7994 20.199 88.4092 20.2926 88.0034 20.3707C87.5976 20.4487 87.1917 20.5111 86.7859 20.558C86.3801 20.6048 85.9977 20.6282 85.6387 20.6282C84.6085 20.6282 83.875 20.4409 83.438 20.0663C83.0166 19.6761 82.798 19.1064 82.7824 18.3572C82.7824 18.0607 82.8058 17.7251 82.8526 17.3505L84.1169 9.27318Z" fill="#1585BB"/>
<path d="M103.675 19.1531C103.269 19.356 102.816 19.5511 102.317 19.7384C101.817 19.91 101.295 20.0662 100.748 20.2066C100.202 20.3316 99.6478 20.4329 99.086 20.511C98.5397 20.5891 98.009 20.6281 97.4939 20.6281C96.6042 20.6281 95.8004 20.5578 95.0824 20.4174C94.38 20.2769 93.7791 20.0193 93.2797 19.6447C92.7958 19.2702 92.4212 18.7629 92.1559 18.1229C91.8905 17.4674 91.7578 16.6323 91.7578 15.6178C91.7578 14.8218 91.8203 13.9946 91.9451 13.1361C92.07 12.2777 92.2885 11.4582 92.6007 10.6778C92.9129 9.89737 93.3265 9.1872 93.8415 8.54726C94.3722 7.90732 95.0357 7.40004 95.8316 7.02545C96.9242 6.52599 98.2743 6.27625 99.8819 6.27625C103.144 6.27625 104.775 7.36103 104.775 9.53058C104.775 9.90518 104.744 10.2876 104.682 10.6778C104.635 11.068 104.541 11.4504 104.401 11.825C104.26 12.184 104.073 12.5196 103.839 12.8317C103.605 13.1439 103.308 13.4015 102.949 13.6043C102.621 13.8072 102.231 13.9789 101.778 14.1194C101.326 14.2599 100.787 14.3769 100.163 14.4706C99.5542 14.5642 98.8596 14.6501 98.0792 14.7281C97.2988 14.7906 96.417 14.853 95.4336 14.9154V15.5476C95.4336 16.3748 95.6443 16.9367 96.0658 17.2332C96.4872 17.5298 97.1818 17.6781 98.1494 17.6781C98.5397 17.6781 98.9611 17.6469 99.4137 17.5844C99.8664 17.5064 100.319 17.4127 100.772 17.3035C101.224 17.1943 101.646 17.0693 102.036 16.9289C102.442 16.7885 102.785 16.6558 103.066 16.5309L103.675 19.1531ZM95.7848 12.4103C97.1271 12.3635 98.165 12.2855 98.8987 12.1762C99.6322 12.0513 100.163 11.8952 100.491 11.7079C100.834 11.5206 101.029 11.3021 101.076 11.0524C101.138 10.787 101.17 10.4827 101.17 10.1393C101.17 9.7647 101.029 9.49936 100.748 9.34328C100.483 9.17159 100.046 9.08574 99.4372 9.08574C98.3758 9.08574 97.5641 9.34328 97.0023 9.85835C96.4559 10.3578 96.0502 11.2085 95.7848 12.4103Z" fill="#1585BB"/>
<path d="M119.223 20.4407C119.037 20.472 118.81 20.511 118.544 20.5578C118.295 20.6046 117.99 20.6281 117.631 20.6281C116.851 20.6281 116.25 20.5032 115.829 20.2534C115.407 19.9882 115.111 19.6681 114.939 19.2936C114.284 19.6838 113.566 20.0037 112.786 20.2534C112.02 20.5032 111.232 20.6281 110.42 20.6281C109.687 20.6281 109.023 20.55 108.43 20.394C107.838 20.2379 107.33 19.9882 106.908 19.6447C106.503 19.2858 106.19 18.8175 105.972 18.24C105.753 17.6469 105.645 16.9211 105.645 16.0627C105.645 15.251 105.699 14.3925 105.808 13.4873C105.933 12.5663 106.16 11.6846 106.487 10.8417C106.814 9.99883 107.26 9.23402 107.822 8.54726C108.384 7.86049 109.109 7.33762 109.999 6.97862C111.185 6.51037 112.754 6.27625 114.705 6.27625C115.688 6.27625 116.616 6.35429 117.491 6.51037C118.365 6.65085 119.06 6.82254 119.575 7.02545L118.264 15.5007C118.232 15.7036 118.193 15.9066 118.146 16.1094C118.116 16.3124 118.1 16.4841 118.1 16.6245C118.1 16.9991 118.193 17.2567 118.381 17.3971C118.584 17.522 119.005 17.5844 119.645 17.5844L119.223 20.4407ZM115.525 9.50717C115.29 9.47595 115.048 9.45254 114.798 9.43693C114.565 9.40571 114.354 9.3901 114.167 9.3901C113.62 9.3901 113.136 9.42132 112.715 9.48375C112.294 9.53058 111.927 9.61642 111.615 9.74128C111.177 9.92859 110.811 10.2408 110.514 10.6778C110.233 11.0992 110.006 11.5753 109.835 12.106C109.679 12.621 109.569 13.1596 109.507 13.7214C109.445 14.2833 109.414 14.7984 109.414 15.2666C109.414 15.7193 109.453 16.0939 109.53 16.3904C109.608 16.6714 109.718 16.8977 109.859 17.0693C110.015 17.2254 110.209 17.3347 110.444 17.3971C110.694 17.444 110.982 17.4674 111.31 17.4674C111.778 17.4674 112.285 17.366 112.832 17.163C113.394 16.9602 113.94 16.6792 114.471 16.3202L115.525 9.50717Z" fill="#1585BB"/>
<path d="M122.922 7.61076C123.905 7.23615 124.959 6.92399 126.082 6.67426C127.206 6.40892 128.368 6.27625 129.571 6.27625C131.178 6.27625 132.411 6.5494 133.27 7.09569C134.004 6.84596 134.752 6.65085 135.518 6.51037C136.282 6.35429 137.063 6.27625 137.859 6.27625C139.56 6.27625 140.809 6.51817 141.605 7.00203C142.416 7.47028 142.83 8.19607 142.846 9.1794C142.846 9.30426 142.846 9.42913 142.846 9.55399C142.846 9.67886 142.83 9.81152 142.798 9.952L141.16 20.4407H137.507L138.913 11.263C138.959 10.9353 138.982 10.6622 138.982 10.4437C138.966 10.0378 138.819 9.7647 138.538 9.62423C138.273 9.48375 137.765 9.41351 137.016 9.41351C136.517 9.41351 136.032 9.47594 135.564 9.60082C135.111 9.71007 134.752 9.83494 134.487 9.97541L132.872 20.4407H129.219L130.624 11.263C130.671 10.9353 130.695 10.6622 130.695 10.4437C130.679 10.0378 130.531 9.7647 130.25 9.62423C129.984 9.48375 129.477 9.41351 128.727 9.41351C128.228 9.41351 127.753 9.47594 127.3 9.60082C126.847 9.71007 126.48 9.83494 126.2 9.97541L124.584 20.4407H120.932L122.922 7.61076Z" fill="#1585BB"/>
<path d="M144.386 17.0693C144.558 17.1319 144.784 17.2021 145.065 17.2801C145.361 17.3425 145.689 17.4049 146.048 17.4674C146.407 17.5142 146.782 17.5533 147.172 17.5844C147.562 17.6157 147.944 17.6313 148.319 17.6313C149.474 17.6313 150.278 17.4986 150.731 17.2332C151.198 16.9679 151.433 16.4841 151.433 15.7817C151.433 15.3135 151.253 15.0247 150.894 14.9154C150.535 14.8061 149.927 14.7515 149.069 14.7515C147.492 14.7515 146.376 14.4706 145.72 13.9087C145.065 13.3312 144.737 12.5508 144.737 11.5675C144.737 10.5061 144.917 9.63203 145.276 8.94527C145.65 8.2585 146.142 7.72001 146.75 7.32981C147.359 6.92399 148.046 6.65085 148.811 6.51037C149.591 6.35429 150.395 6.27625 151.222 6.27625C152.049 6.27625 152.837 6.31527 153.587 6.39331C154.351 6.45575 155.007 6.5494 155.553 6.67426L154.922 9.50717C154.671 9.44473 154.399 9.3979 154.102 9.36669C153.805 9.31986 153.509 9.28085 153.212 9.24962C152.915 9.21841 152.627 9.195 152.346 9.1794C152.08 9.16378 151.854 9.15597 151.667 9.15597C150.496 9.15597 149.669 9.27304 149.185 9.50717C148.701 9.72568 148.459 10.1549 148.459 10.7949C148.459 11.2163 148.616 11.4894 148.927 11.6142C149.24 11.7235 149.771 11.7781 150.519 11.7781C151.237 11.7781 151.886 11.8328 152.463 11.9421C153.056 12.0513 153.548 12.2308 153.937 12.4805C154.344 12.7147 154.655 13.0346 154.874 13.4404C155.093 13.8463 155.202 14.3536 155.202 14.9623C155.202 16.8196 154.625 18.2322 153.47 19.1999C152.315 20.1521 150.512 20.6281 148.061 20.6281C147.313 20.6281 146.54 20.5813 145.744 20.4876C144.947 20.394 144.3 20.2612 143.801 20.0895L144.386 17.0693Z" fill="#1585BB"/>
</g>
<defs>
<clipPath id="clip0_790_14945">
<rect width="170" height="25.3417" fill="white" transform="translate(0 0.580017)"/>
</clipPath>
</defs>
</svg>
