<svg width="170" height="22" viewBox="0 0 170 22" fill="none" xmlns="http://www.w3.org/2000/svg">
<path d="M12.8596 15.232C11.1172 16.8378 9.90527 17.3792 8.05437 17.3792C6.52178 17.3792 5.10707 16.8218 4.17337 15.8514C3.11706 14.7342 2.60305 13.0733 2.60305 10.7724C2.60305 6.96662 4.65673 4.50741 7.83745 4.50741C9.15548 4.50741 10.3014 5.03504 11.3459 6.12012C11.9236 6.72574 12.2301 7.36348 12.48 8.4738L12.4847 8.49674H13.0436L12.8455 3.62421V3.59668H12.3574L12.3503 3.61733C12.2277 4.03255 11.8788 4.30095 11.4567 4.30095C11.1903 4.30095 10.7517 4.16331 10.365 4.04402C10.2165 3.99814 10.0774 3.95455 9.95243 3.92014C9.14605 3.7045 8.29015 3.59897 7.33523 3.59897C5.18488 3.59897 3.33634 4.36977 1.9853 5.82648C0.667268 7.26025 0 9.04042 0 11.1142C0 13.2316 0.771012 15.1816 2.11262 16.4685C3.38114 17.6798 5.27448 18.3748 7.30929 18.3748C9.92413 18.3748 12.0603 17.4091 13.3194 15.6541L13.3336 15.6335L12.8785 15.2137L12.8596 15.232Z" fill="black"/>
<path d="M25.3113 4.35612L25.3395 4.35841C26.9476 4.48229 27.2635 4.65434 27.2635 6.35652V10.3596H20.6781V6.35652C20.6781 4.68187 21.0436 4.48229 22.6021 4.35841L22.6304 4.35612V3.89502H16.4316V4.35612L16.4599 4.35841C18.1505 4.48688 18.3839 4.73005 18.3839 6.35652V15.4455C18.3839 17.2646 18.167 17.5078 16.4599 17.6156L16.4316 17.6179V18.079H22.6115L22.5856 17.6179L22.5597 17.6156C20.9775 17.5331 20.6805 17.2188 20.6805 15.6382V11.3552H27.2659V15.4019C27.2659 17.2211 27.016 17.5101 25.3631 17.6133L25.3348 17.6156V18.0767H31.5124V17.6156L31.4841 17.6133C29.8642 17.4872 29.5601 17.1798 29.5601 15.6795V6.35652C29.5601 4.76905 29.8289 4.48917 31.4841 4.35841L31.5124 4.35612V3.89502H25.3136V4.35612H25.3113Z" fill="black"/>
<path fill-rule="evenodd" clip-rule="evenodd" d="M41.5564 3.65629L46.9511 15.6679C47.5548 17.0328 47.8471 17.4847 48.9954 17.6155L49.0213 17.6178V18.0766H43.3696V17.6132H43.3979C44.1736 17.6132 44.3245 17.5765 44.5886 17.4251C44.7513 17.3471 44.881 17.1292 44.881 16.9387C44.881 16.6107 44.7183 16.028 44.466 15.4568L43.5747 13.4679H37.8688L36.8667 15.8812C36.7488 16.1771 36.671 16.5327 36.671 16.7667C36.671 17.3769 37.093 17.6132 38.1753 17.6132H38.2036V18.0766H33.7803V17.6178L33.8062 17.6155C35.0653 17.487 35.2634 17.0328 36.546 14.0689L41.0707 3.63794H41.5493L41.5564 3.65629ZM38.2602 12.5365H43.2376L40.7382 6.77159L38.2602 12.5365Z" fill="black"/>
<path d="M68.0471 15.6587V6.31283C68.0471 4.72536 68.3819 4.37896 69.9263 4.35832H69.9546V3.89722H65.5431L60.7143 14.5645L55.6756 3.91328L55.6685 3.89722H51.2782V4.35832L51.3065 4.36061C53.0937 4.46614 53.3625 4.72536 53.3625 6.33807V14.8306C53.3625 17.2577 53.0183 17.494 51.2617 17.6178L51.2334 17.6201V18.0812H56.423V17.6201L56.3947 17.6178C54.6829 17.5307 54.3835 17.1154 54.3835 14.8306V6.46654L59.8536 18.0606L59.8607 18.0766H60.205L65.7482 5.97791V15.4224C65.7482 17.221 65.4936 17.5077 63.803 17.6132L63.7747 17.6155V18.0766H69.9735V17.6155L69.9452 17.6132C68.3843 17.51 68.0471 17.1613 68.0471 15.6587Z" fill="black"/>
<path fill-rule="evenodd" clip-rule="evenodd" d="M78.7825 3.89502C80.8315 3.89502 82.4843 4.363 83.5595 5.24621C84.2834 5.84495 84.6653 6.73045 84.6677 7.80635C84.6677 8.93501 84.2339 9.90768 83.4086 10.6234C82.133 11.7337 81.0649 11.931 78.6953 11.931C78.1412 11.931 77.797 11.9104 77.2122 11.8691V15.6611C77.2122 17.2738 77.4763 17.5308 79.2447 17.6156L79.273 17.6179V18.079H73.0742V17.6179L73.1025 17.6156C74.8167 17.4872 74.918 17.2486 74.918 15.4455V6.29228C74.918 4.71858 74.6964 4.48459 73.1025 4.35841L73.0742 4.35612V3.89502H78.7825ZM77.9479 4.74381C77.3207 4.74381 77.2099 4.93651 77.2099 5.48249H77.2075V10.9606C77.7286 11.0042 78.1106 11.0226 78.5161 11.0226C79.6762 11.0226 80.6287 10.7312 81.2653 10.1807C81.8878 9.64387 82.2156 8.8616 82.2156 7.91417C82.2156 6.73962 81.8925 5.95965 81.197 5.45726C80.5226 4.97092 79.4899 4.74381 77.9479 4.74381Z" fill="black"/>
<path d="M86.7334 4.35612L86.7617 4.35841C88.6456 4.46623 88.8602 4.66581 88.8602 6.29228V15.6588C88.8602 17.2945 88.5843 17.5514 86.7617 17.6133H86.7334V18.0744H93.3047V17.6133H93.2764C91.4915 17.5491 91.1567 17.2394 91.1567 15.6588V6.29228C91.1567 4.69564 91.4349 4.44329 93.2788 4.35841L93.307 4.35612V3.89502H86.7358V4.35612H86.7334Z" fill="black"/>
<path fill-rule="evenodd" clip-rule="evenodd" d="M97.8904 5.62919C99.1966 4.29865 100.998 3.59668 103.101 3.59668C105.197 3.59668 107.001 4.32389 108.317 5.7026C109.595 7.03773 110.297 8.91425 110.297 10.9858C110.297 13.1399 109.602 14.9889 108.284 16.3332C106.975 17.6683 105.181 18.3748 103.099 18.3748C101 18.3748 99.2014 17.6637 97.8975 16.3171C96.5912 14.9682 95.9004 13.1032 95.9004 10.9215C95.9004 8.78578 96.5889 6.95744 97.8904 5.62919ZM103.078 4.42253C101.868 4.42253 100.793 4.91346 99.9653 5.84254C99.0505 6.8565 98.4586 8.86608 98.4586 10.9651C98.4586 13.539 99.1188 15.4339 100.423 16.597C101.125 17.2187 102.059 17.549 103.122 17.549C104.252 17.549 105.195 17.2072 105.931 16.5327C107.114 15.4224 107.741 13.4587 107.741 10.8573C107.741 8.46921 106.999 6.43669 105.756 5.41814C104.929 4.74828 104.054 4.42253 103.078 4.42253Z" fill="black"/>
<path d="M122.763 3.89502V4.32859L122.77 4.35612L122.796 4.35841C123.746 4.46394 124.138 4.50753 124.503 4.9021C124.845 5.27832 124.913 5.97341 124.913 6.97361V14.1448L116.501 3.90649L116.491 3.89502H112.719V4.35841H112.747C113.782 4.35841 114.11 4.58323 114.846 5.47102V14.8467C114.846 17.1706 114.475 17.4275 112.745 17.6133L112.719 17.6156V18.0744H117.908V17.6156L117.882 17.611C116.277 17.3885 115.869 17.0857 115.869 14.8444V6.65015L125.486 18.2993L125.496 18.3107H125.934V7.23055C125.934 5.58113 126.144 5.09709 126.559 4.73464C126.835 4.50753 127.144 4.44329 127.99 4.35612L128.016 4.35383V3.89502L122.763 3.89502Z" fill="black"/>
<path d="M152.67 18.0768H140.234V17.5515C141.807 17.3634 142.088 17.1317 142.088 16.0214V5.99874C142.088 4.80355 141.699 4.50991 140.234 4.42503V3.90199L147.735 3.88135V4.40668C145.86 4.49156 145.58 4.76226 145.58 6.48278V16.2118C145.58 17.1133 146.011 17.4276 147.412 17.4276C149.201 17.4276 150.192 17.0514 151.076 16.2737C151.809 15.6245 152.368 14.6174 152.95 13.3167H153.575L152.67 18.0768Z" fill="#C2AB64"/>
<path fill-rule="evenodd" clip-rule="evenodd" d="M162.973 17.5514V18.0768V18.0791H169.915V17.5537C169.033 17.5537 168.644 17.0926 167.545 14.5554L162.761 3.6106H162.157L157.395 15.0372C156.574 17.0078 156.251 17.3863 155.261 17.5537V18.0791H159.613V17.5537C158.342 17.4689 157.869 17.2395 157.869 16.6935C157.869 16.276 158.148 15.6012 158.391 15.0129C158.442 14.89 158.491 14.7709 158.536 14.6587L158.816 13.9452H163.664C164.395 15.6015 164.654 16.3333 164.654 16.7967C164.654 17.2601 164.376 17.4276 163.664 17.4895L162.973 17.5514ZM159.137 13.1285L161.162 8.03349L163.339 13.1285H159.137Z" fill="#C2AB64"/>
<rect x="133.718" y="0.921875" width="0.587097" height="20.0751" fill="black"/>
</svg>
