<svg width="170" height="18" viewBox="0 0 170 18" fill="none" xmlns="http://www.w3.org/2000/svg">
<g clip-path="url(#clip0_792_15076)">
<path fill-rule="evenodd" clip-rule="evenodd" d="M85.6598 0.989262C86.5304 0.989262 87.2001 1.1883 87.6683 1.5855C88.1366 1.98304 88.3709 2.54756 88.3709 3.27871C88.3709 3.53329 88.3298 3.84323 88.2476 4.20871L87.7791 6.21204H83.7127L83.9838 5.04341C83.9999 4.98016 84.0084 4.90044 84.0084 4.80495C84.0084 4.67792 83.9713 4.58664 83.8976 4.53075C83.8235 4.47521 83.6959 4.44717 83.5153 4.44717H81.174C80.9437 4.44717 80.7711 4.49115 80.6563 4.5784C80.5412 4.66601 80.4593 4.82107 80.4099 5.04341L80.0649 6.56964C80.0481 6.61748 80.0403 6.68896 80.0403 6.78428C80.0403 7.03885 80.1797 7.18971 80.4593 7.23754L84.5261 8.16754C86.0209 8.51743 86.7687 9.36825 86.7687 10.7193C86.7687 10.9737 86.7276 11.2999 86.6454 11.6971L85.9801 14.5826C85.717 15.7434 85.2486 16.59 84.575 17.1224C83.9012 17.6554 82.9649 17.9214 81.7654 17.9214H76.7129C75.8419 17.9214 75.1724 17.7227 74.7044 17.3252C74.2359 16.928 74.0018 16.3634 74.0018 15.6319C74.0018 15.3779 74.0425 15.0678 74.1251 14.7019L74.6424 12.484H78.7092L78.3889 13.8672C78.3724 13.931 78.3643 14.0102 78.3643 14.1057C78.3643 14.2331 78.401 14.3245 78.4751 14.3799C78.5492 14.4358 78.6761 14.4635 78.8573 14.4635H81.322C81.5519 14.4635 81.7241 14.4198 81.8393 14.3322C81.9541 14.245 82.0367 14.0901 82.0859 13.8672L82.5049 12.0071C82.5211 11.9594 82.5297 11.8877 82.5297 11.7924C82.5297 11.5384 82.39 11.387 82.1107 11.3393L78.044 10.4093C76.5484 10.0598 75.801 9.20898 75.801 7.8576C75.801 7.60337 75.8419 7.27731 75.9243 6.87976L76.5159 4.32803C76.7784 3.16763 77.2467 2.32102 77.9206 1.78821C78.5941 1.25575 79.5308 0.989262 80.7304 0.989262H85.6598ZM71.7346 0.98921C72.6054 0.98921 73.275 1.18825 73.7432 1.58544C74.2117 1.98317 74.4458 2.54751 74.4458 3.27866C74.4458 3.53323 74.4043 3.84318 74.3225 4.20884L73.8542 6.21199H69.7875L70.0587 5.04335C70.0748 4.9801 70.0832 4.90038 70.0832 4.80507C70.0832 4.67787 70.0464 4.58659 69.9723 4.53069C69.8985 4.47515 69.771 4.44729 69.5903 4.44729H67.2489C67.0186 4.44729 66.8461 4.49127 66.7313 4.57835C66.6163 4.66595 66.5341 4.82101 66.4848 5.04335L66.1399 6.56977C66.1232 6.61742 66.1151 6.68891 66.1151 6.7844C66.1151 7.0388 66.2547 7.18983 66.5341 7.23749L70.6008 8.16749C72.0958 8.51738 72.8437 9.36819 72.8437 10.7192C72.8437 10.9738 72.8026 11.2999 72.7205 11.6971L72.0551 14.5826C71.792 15.7433 71.3237 16.5899 70.6501 17.1224C69.9761 17.6554 69.0396 17.9213 67.8403 17.9213H62.7878C61.9166 17.9213 61.2474 17.7228 60.7791 17.3251C60.3108 16.9279 60.0767 16.3634 60.0767 15.6321C60.0767 15.3778 60.1175 15.0677 60.2 14.7019L60.7175 12.4841H64.7843L64.4638 13.8672C64.4472 13.931 64.4392 14.0103 64.4392 14.1056C64.4392 14.2332 64.4761 14.3245 64.55 14.3798C64.6241 14.4359 64.7512 14.4634 64.9321 14.4634H67.3967C67.6267 14.4634 67.7992 14.4198 67.9144 14.3322C68.029 14.2451 68.1114 14.0901 68.1609 13.8672L68.5797 12.007C68.596 11.9593 68.6045 11.8879 68.6045 11.7924C68.6045 11.5383 68.4647 11.3871 68.1855 11.3393L64.1187 10.4093C62.6234 10.0597 61.8759 9.2091 61.8759 7.85755C61.8759 7.60332 61.9166 7.27743 61.999 6.87971L62.5908 4.32798C62.8533 3.16775 63.3216 2.32114 63.9956 1.78816C64.669 1.2557 65.6057 0.98921 66.8051 0.98921H71.7346ZM122.889 0.921387L123.953 4.3793H123.29C123.06 4.3793 122.887 4.42327 122.772 4.51053C122.657 4.59813 122.575 4.75319 122.526 4.97553L120.505 13.7994C120.488 13.8631 120.48 13.9425 120.48 14.0378C120.48 14.1652 120.517 14.2567 120.591 14.312C120.665 14.3679 120.792 14.3956 120.973 14.3956H121.512L122.575 17.8535H118.829C117.958 17.8535 117.289 17.6548 116.82 17.2573C116.352 16.8601 116.118 16.2956 116.118 15.5642C116.118 15.31 116.159 14.9999 116.241 14.6341L118.632 4.26015C118.911 3.09975 119.383 2.25332 120.049 1.72034C120.715 1.18788 121.647 0.921387 122.846 0.921387H122.889ZM127.776 0.921457C128.646 0.921457 129.316 1.12049 129.784 1.51769C130.253 1.91524 130.487 2.47976 130.487 3.2109C130.487 3.46548 130.446 3.77542 130.364 4.14091L127.973 14.5148C127.693 15.6756 127.221 16.5222 126.556 17.0546C125.89 17.5874 124.958 17.8536 123.758 17.8536H123.709L122.645 14.3957H123.315C123.545 14.3957 123.717 14.352 123.832 14.2644C123.947 14.1772 124.029 14.0223 124.079 13.7994L126.1 4.9756C126.116 4.91235 126.124 4.83263 126.124 4.73714C126.124 4.61012 126.087 4.51883 126.013 4.46294C125.94 4.4074 125.812 4.37937 125.632 4.37937H125.087L124.023 0.921457H127.776ZM14.8096 1.10858L12.345 4.56649H7.09525L6.42979 7.54748H12.0986L9.63393 11.0054H5.64103L4.06367 17.8021H-0.00292969L3.44747 2.84945L2.97921 1.10858H14.8096ZM20.6017 1.10858L16.7569 17.8021H12.6901L16.1407 2.84945L15.6724 1.10858H20.6017ZM34.1818 1.10853L33.3684 4.56644H29.5482L26.5167 17.8022H22.4499L25.4815 4.56644H21.6613L22.4745 1.10853H34.1818ZM40.3759 1.10853L42.3475 10.2185L44.4425 1.10853H48.5093L44.6643 17.8022H40.4744L38.5027 8.69224L36.4078 17.8022H32.341L35.7916 2.8494L35.3234 1.10853H40.3759ZM62.0976 1.10858L59.633 4.56649H54.3832L53.7177 7.54748H59.3865L56.9219 11.0054H52.929L52.165 14.3442H59.0662L56.6014 17.8021H47.285L50.7354 2.84945L50.2672 1.10858H62.0976ZM101.694 1.10853L101.349 11.5301L105.884 1.10853H109.458L109.236 11.5301L113.673 1.10853H118.158L110.321 17.8022H106.131V8.31064L101.768 17.8022H97.5783L97.455 1.10853H101.694ZM141.711 1.10854C142.582 1.10854 143.252 1.30758 143.72 1.70478C144.188 2.10233 144.422 2.66685 144.422 3.39799C144.422 3.60151 144.396 3.84069 144.343 4.11535L144.299 4.328L143.165 9.28832C142.968 10.1312 142.668 10.8068 142.266 11.3155C141.913 11.7608 141.47 12.0904 140.935 12.3041L140.701 12.3886L141.686 17.8022H137.25L136.535 12.6271H134.761L133.553 17.8022H129.486L132.937 2.84941L132.469 1.10854H141.711ZM151.635 1.10853L148.604 14.3441H154.395L151.931 17.8022H143.723L147.568 1.10853H151.635ZM167.286 1.10854C168.157 1.10854 168.826 1.30758 169.294 1.70478C169.763 2.10233 169.997 2.66685 169.997 3.39799C169.997 3.60151 169.971 3.84069 169.918 4.11535L169.874 4.328L167.532 14.4634C167.269 15.6242 166.801 16.4708 166.127 17.0033C165.51 17.4917 164.671 17.756 163.612 17.7967L163.318 17.8022H155.061L158.512 2.84941L158.044 1.10854H167.286ZM165.117 4.56645H162.159L159.941 14.3441H162.899C163.129 14.3441 163.297 14.3007 163.404 14.2131C163.489 14.1433 163.556 14.0301 163.605 13.8735L163.638 13.7479L165.61 5.16269C165.626 5.09944 165.635 5.02778 165.635 4.94806C165.635 4.69401 165.462 4.56645 165.117 4.56645ZM139.542 4.56645H136.585L135.55 9.16917H138.507C138.737 9.16917 138.905 9.12555 139.012 9.03794C139.098 8.96828 139.165 8.85511 139.213 8.69852L139.246 8.57294L140.035 5.16269C140.052 5.09944 140.06 5.02778 140.06 4.94806C140.06 4.69401 139.887 4.56645 139.542 4.56645Z" fill="#0C0C0C"/>
</g>
<defs>
<clipPath id="clip0_792_15076">
<rect width="170" height="17" fill="white" transform="translate(0 0.921631)"/>
</clipPath>
</defs>
</svg>
