<svg width="314" height="35" viewBox="0 0 314 35" fill="none" xmlns="http://www.w3.org/2000/svg">
<path d="M81.2241 7.72266C83.0039 7.72266 84.3523 8.20806 85.377 9.12494C86.4018 10.0418 86.9411 11.4441 86.9951 13.2239H83.3815C83.3815 12.4688 83.1657 11.9295 82.7343 11.498C82.3028 11.1205 81.7635 10.9048 81.1163 10.9048C80.469 10.9048 79.9836 11.0666 79.6061 11.4441C79.2286 11.7677 79.0668 12.2531 79.0668 12.9003C79.0668 13.5475 79.2825 14.0869 79.7679 14.4105C80.1994 14.7341 81.0623 15.1116 82.3028 15.5431C84.2444 16.1903 85.5928 16.9993 86.4018 17.8623C87.2108 18.7252 87.5883 19.8578 87.5883 21.2601C87.5883 22.986 86.9951 24.3883 85.8624 25.3591C84.7298 26.3299 83.2736 26.8692 81.4399 26.8692C79.3904 26.8692 77.8263 26.3299 76.6937 25.2512C75.561 24.1725 75.0217 22.7163 74.9678 20.8826H78.5814C78.6892 22.7702 79.66 23.6871 81.4938 23.6871C82.2489 23.6871 82.8421 23.4714 83.2736 23.0939C83.7051 22.7163 83.9208 22.177 83.9208 21.5837C83.9208 20.9904 83.6511 20.4511 83.1657 20.0735C82.6803 19.696 81.8174 19.2645 80.6308 18.887C78.851 18.2937 77.5566 17.5926 76.6937 16.7296C75.8307 15.8667 75.3992 14.7341 75.3992 13.2239C75.3992 11.6059 75.9386 10.3115 76.9633 9.28674C78.042 8.20806 79.4443 7.72266 81.2241 7.72266Z" fill="#00A9CE"/>
<path d="M94.4389 13.1164H97.5131V16.2446H94.385L94.331 21.6919C94.331 22.3931 94.4389 22.8785 94.7086 23.1481C94.9782 23.4717 95.4097 23.5796 96.0569 23.5796C96.5423 23.5796 97.0277 23.5257 97.4053 23.4178V26.3842C96.9199 26.5999 96.1648 26.6538 95.2479 26.6538C93.7378 26.6538 92.6591 26.3302 91.904 25.6291C91.1489 24.9819 90.8253 23.9032 90.8253 22.3931L90.8793 16.1907H88.668V13.1164H90.8793V9.88037H94.2771L94.4389 13.1164Z" fill="#00A9CE"/>
<path fill-rule="evenodd" clip-rule="evenodd" d="M109 14.0872C108.03 13.2782 106.735 12.8467 105.117 12.8467C103.553 12.8467 102.313 13.2782 101.342 14.195C100.371 15.058 99.8856 16.1906 99.7777 17.5929H103.068C103.068 17.0535 103.283 16.6221 103.661 16.2985C104.038 15.9749 104.524 15.8131 105.117 15.8131C106.358 15.8131 107.005 16.5142 107.005 17.8625V18.4019L103.553 18.9952C102.259 19.2109 101.288 19.6424 100.533 20.2356C99.8316 20.8289 99.4541 21.7458 99.4541 22.9863C99.4541 24.1728 99.8316 25.0897 100.587 25.7908C101.288 26.492 102.313 26.8156 103.499 26.8156C105.225 26.8156 106.466 26.1684 107.328 24.874L107.544 26.492H110.457V17.7007C110.457 16.1367 109.971 14.8962 109 14.0872ZM102.797 22.6624C102.797 21.9074 103.283 21.422 104.307 21.1523L107.058 20.6669V21.0444C107.058 21.7456 106.896 22.3388 106.573 22.8242C106.033 23.6333 105.332 24.0108 104.415 24.0108C103.876 24.0108 103.498 23.849 103.229 23.6333C102.959 23.3636 102.797 23.04 102.797 22.6624Z" fill="#00A9CE"/>
<path fill-rule="evenodd" clip-rule="evenodd" d="M123.4 26.4917H126.312V7.2373H122.914V14.6802C122.105 13.4936 120.757 12.9004 118.923 12.9004C117.143 12.9004 115.687 13.5476 114.501 14.8959C113.314 16.2443 112.721 17.9162 112.721 19.8579C112.721 21.8534 113.314 23.4714 114.501 24.8198C115.687 26.1681 117.143 26.8154 118.923 26.8154C120.757 26.8154 122.213 26.1142 123.184 24.7119L123.4 26.4917ZM117.252 17.0535C117.899 16.3524 118.654 16.0288 119.625 16.0288C120.488 16.0288 121.297 16.3524 122.052 16.9996C122.699 17.7007 123.077 18.5637 123.077 19.6963V19.8581C123.077 20.9907 122.753 21.9076 122.052 22.5548C121.405 23.256 120.596 23.5796 119.679 23.5796C118.708 23.5796 117.899 23.256 117.252 22.5548C116.605 21.8537 116.281 20.9368 116.281 19.8042C116.281 18.6716 116.605 17.7547 117.252 17.0535Z" fill="#00A9CE"/>
<path fill-rule="evenodd" clip-rule="evenodd" d="M133.055 7.77638C132.677 7.39884 132.192 7.18311 131.598 7.18311C131.059 7.18311 130.52 7.34491 130.142 7.77638C129.765 8.20785 129.549 8.69326 129.549 9.2326C129.549 9.82587 129.765 10.3113 130.142 10.6888C130.52 11.0664 131.059 11.2821 131.598 11.2821C132.138 11.2821 132.677 11.0664 133.055 10.6888C133.432 10.3113 133.648 9.82587 133.648 9.2326C133.648 8.63932 133.432 8.15392 133.055 7.77638ZM129.926 26.4913H133.324V13.1157H129.926V26.4913Z" fill="#00A9CE"/>
<path d="M147.725 26.4914H144.813L144.543 24.7655C143.842 26.1138 142.655 26.815 141.037 26.815C139.635 26.815 138.556 26.3835 137.855 25.4666C137.1 24.6037 136.776 23.3632 136.776 21.7991V13.1157H140.174V20.9901C140.174 22.6081 140.821 23.4171 142.062 23.4171C142.763 23.4171 143.302 23.1474 143.734 22.6081C144.165 22.0688 144.381 21.3137 144.381 20.235V13.1157H147.779V26.4914H147.725Z" fill="#00A9CE"/>
<path d="M165.738 12.8464C167.141 12.8464 168.165 13.2779 168.92 14.1948C169.622 15.0577 169.999 16.2982 169.999 17.8623V26.5457H166.601V18.5634C166.601 16.9454 165.954 16.1903 164.714 16.1903C164.012 16.1903 163.419 16.46 163.042 16.9993C162.61 17.5387 162.394 18.3477 162.394 19.4264V26.4917H158.997V18.5634C158.997 16.9454 158.349 16.1903 157.055 16.1903C156.354 16.1903 155.814 16.46 155.383 16.9993C154.951 17.5387 154.736 18.3477 154.736 19.4264V26.4917H151.338V13.1161H154.25L154.466 14.842C155.221 13.4936 156.408 12.7925 158.026 12.7925C159.913 12.7925 161.154 13.5476 161.855 15.1116C162.664 13.6015 163.958 12.8464 165.738 12.8464Z" fill="#00A9CE"/>
<path fill-rule="evenodd" clip-rule="evenodd" d="M14.0762 19.8577C14.0762 16.0283 17.1504 12.9541 20.9797 12.9541C24.809 12.9541 27.8833 16.0283 27.8833 19.8577C27.8833 23.687 24.809 26.7612 20.9797 26.7612C17.1504 26.7612 14.0762 23.687 14.0762 19.8577ZM20.9804 23.3632C22.8142 23.3632 24.3243 21.7992 24.3243 19.8575C24.3243 17.9698 22.8142 16.3518 20.9804 16.3518C19.1467 16.3518 17.6365 17.9159 17.6365 19.8575C17.6365 21.7992 19.1467 23.3632 20.9804 23.3632Z" fill="#00A9CE"/>
<path d="M45.2506 13.2778C45.1967 13.2239 45.0888 13.1699 44.9809 13.1699H42.1764C41.9606 13.1699 41.7988 13.3317 41.7988 13.5475V26.168C41.7988 26.2759 41.8528 26.3298 41.9067 26.4377C41.9606 26.4916 42.0685 26.5456 42.1764 26.5456H44.9809C45.1967 26.5456 45.3585 26.3838 45.3585 26.168V13.5475C45.3585 13.4396 45.3045 13.3317 45.2506 13.2778Z" fill="#00A9CE"/>
<path d="M43.6323 11.552C44.711 11.552 45.5739 10.689 45.5739 9.66428C45.5739 8.5856 44.711 7.72266 43.6323 7.72266C42.5536 7.72266 41.7446 8.5856 41.7446 9.66428C41.6907 10.689 42.5536 11.552 43.6323 11.552Z" fill="#00A9CE"/>
<path d="M39.8033 7.99219H29.6637C29.4479 7.99219 29.2861 8.15399 29.2861 8.36973V26.1679C29.2861 26.2758 29.3401 26.3298 29.394 26.4376C29.4479 26.4916 29.5558 26.5455 29.6637 26.5455H32.4682C32.684 26.5455 32.8458 26.3837 32.8458 26.1679V18.9947H39.1021C39.21 18.9947 39.2639 18.9408 39.3718 18.8869C39.4257 18.8329 39.4797 18.7251 39.4797 18.6172V15.9744C39.4797 15.7587 39.3179 15.5969 39.1021 15.5969H32.8458V11.2822H39.8572C39.9651 11.2822 40.019 11.2282 40.1269 11.1743C40.1808 11.1204 40.2347 11.0125 40.2347 10.9046V8.31579C40.1808 8.15399 40.019 7.99219 39.8033 7.99219Z" fill="#00A9CE"/>
<path d="M7.49683 15.651C4.74619 14.5184 3.88325 13.9791 3.88325 12.9004C3.88325 11.552 5.17766 11.0666 6.41815 11.0666C7.71256 11.0666 9.06091 11.7678 9.06091 13.6555C9.06091 13.7633 9.16878 13.8712 9.27665 13.8712H12.297C12.4048 13.8712 12.5127 13.7633 12.5127 13.6555C12.5127 10.1497 9.97779 7.72272 6.36421 7.72272C2.6967 7.66878 0.323604 9.71828 0.323604 12.9004C0.323604 16.6758 3.12817 17.7544 5.82487 18.7792L5.98667 18.8331C8.46764 19.8039 9.38452 20.2354 9.38452 21.4759C9.38452 23.1478 7.71256 23.4175 6.68782 23.4175C4.85406 23.4175 3.50571 22.1231 3.50571 20.3433V20.1275C3.50571 20.0197 3.39784 19.9118 3.28997 19.9118H0.215736C0.107868 19.9118 0 20.0197 0 20.1275V20.1815C0 20.2354 0 20.2893 0 20.3433C0 24.1187 2.75063 26.7614 6.68782 26.7614C10.4093 26.7614 12.8902 24.658 12.8902 21.4759C12.9442 18.4017 11.3261 17.2151 7.49683 15.651Z" fill="#00A9CE"/>
<path fill-rule="evenodd" clip-rule="evenodd" d="M64.3965 10.6892C64.3965 9.0173 65.7448 7.66895 67.4168 7.66895C69.0887 7.66895 70.4371 9.0173 70.4371 10.6892C70.4371 12.3612 69.0887 13.7096 67.4168 13.7096C65.7448 13.7096 64.3965 12.3612 64.3965 10.6892ZM69.6283 10.6892C69.6283 9.44872 68.6574 8.47791 67.417 8.47791C66.2304 8.47791 65.2057 9.44872 65.2057 10.6892C65.2057 11.9297 66.1765 12.9005 67.417 12.9005C68.6574 12.9005 69.6283 11.9297 69.6283 10.6892Z" fill="#00A9CE"/>
<circle cx="67.4116" cy="17.2237" r="3.02024" transform="rotate(-28.5359 67.4116 17.2237)" fill="#00A9CE"/>
<circle cx="67.4165" cy="23.7486" r="3.02024" transform="rotate(-28.5359 67.4165 23.7486)" fill="#00A9CE"/>
<path fill-rule="evenodd" clip-rule="evenodd" d="M57.9238 17.2146C57.9238 15.5427 59.2722 14.1943 60.9441 14.1943C62.6161 14.1943 63.9644 15.5427 63.9644 17.2146C63.9644 18.8866 62.6161 20.2349 60.9441 20.2349C59.2722 20.2349 57.9238 18.8866 57.9238 17.2146ZM62.5082 15.6506C62.0768 15.2191 61.5374 15.0034 60.9442 15.0034C59.7037 15.0034 58.7329 16.0281 58.7329 17.2147C58.7329 17.8079 58.9486 18.3473 59.3801 18.7787C59.8115 19.2102 60.3509 19.426 60.9442 19.426C62.1846 19.426 63.1554 18.4551 63.1554 17.2147C63.1554 16.6214 62.9397 16.082 62.5082 15.6506Z" fill="#00A9CE"/>
<circle cx="54.3988" cy="17.2118" r="3.02026" transform="rotate(-66.1085 54.3988 17.2118)" fill="#00A9CE"/>
<circle cx="60.9105" cy="10.6825" r="3.02026" transform="rotate(-66.1085 60.9105 10.6825)" fill="#00A9CE"/>
<circle cx="54.3909" cy="10.6917" r="3.02026" transform="rotate(-66.1085 54.3909 10.6917)" fill="#00A9CE"/>
<circle cx="60.928" cy="23.7225" r="3.02026" transform="rotate(-66.1085 60.928 23.7225)" fill="#00A9CE"/>
<path fill-rule="evenodd" clip-rule="evenodd" d="M51.3984 23.7405C51.3984 22.0686 52.7468 20.7202 54.4187 20.7202C56.0907 20.7202 57.439 22.0686 57.439 23.7405C57.439 25.4125 56.0907 26.7608 54.4187 26.7608C52.7468 26.7608 51.3984 25.4125 51.3984 23.7405ZM55.983 22.1767C55.5516 21.7452 55.0122 21.5295 54.419 21.5295C53.1785 21.5295 52.2077 22.5003 52.2077 23.7408C52.2077 24.9812 53.1785 25.952 54.419 25.952C55.6594 25.952 56.6303 24.9812 56.6303 23.7408C56.6303 23.1475 56.4145 22.6081 55.983 22.1767Z" fill="#00A9CE"/>
<path fill-rule="evenodd" clip-rule="evenodd" d="M228.143 5.93646C224.366 2.1816 219.349 0.109375 214.017 0.109375C210.274 0.109375 206.622 1.15377 203.452 3.12653C201.322 4.51077 199.409 6.39235 197.903 8.53088L197.887 8.54746H193.761L185.999 26.0536H196.073C197.512 28.7392 199.75 31.0103 202.429 32.4775C204.758 33.7622 207.412 34.4336 210.091 34.4336C213.185 34.4336 216.188 33.5467 218.767 31.8641C219.341 31.4911 219.599 30.7948 219.399 30.14C219.2 29.4769 218.617 29.0376 217.935 29.0376C217.786 29.0376 217.627 29.0624 217.478 29.1039C216.479 29.4023 215.44 29.5515 214.383 29.5515C211.313 29.5515 208.435 28.2418 206.48 26.0453H215.889L217.503 23.799H223.775C223.775 23.799 223.584 24.2798 223.476 24.5201L222.802 26.0453H233.067L233.284 25.2413C233.749 23.5338 233.991 21.7682 233.991 20.0027C233.991 14.6978 231.919 9.69961 228.143 5.93646ZM210.348 19.6297H203.984V19.5634C203.984 14.2419 208.31 9.8571 213.842 9.58357L213.842 9.58357C214.025 9.57528 214.208 9.56699 214.391 9.56699C215.398 9.56699 216.371 9.69961 217.286 9.93999L210.348 19.6297ZM224.682 17.4746C224.607 16.4633 224.424 15.4853 224.149 14.5486L222.053 17.4746H224.682Z" fill="white"/>
<path d="M214.017 1.19531C210.349 1.19531 206.93 2.23971 204.026 4.04669C205.873 3.2924 207.895 2.87796 210.016 2.87796C218.718 2.87796 225.78 9.89035 225.814 18.5605H219.924L223.792 13.1645C223.792 13.1645 223.052 11.5316 221.845 10.454C220.639 9.37644 219.15 9.37644 219.025 9.38473L207.861 24.9678H215.332L216.937 22.7215H225.273C225.065 23.4924 224.799 24.2467 224.483 24.9678H232.244C232.677 23.3929 232.91 21.7352 232.91 20.0194C232.91 9.62511 224.449 1.19531 214.017 1.19531Z" fill="#003594"/>
<path d="M210.09 3.88916C209.982 3.88916 209.874 3.88916 209.766 3.88916C205.149 3.98863 201.048 6.22663 198.402 9.63336C193.419 16.5794 196.738 24.9678 196.738 24.9678C197.279 26.0951 197.953 27.1395 198.752 28.0761C199.924 29.4687 201.347 30.6457 202.953 31.5243C205.066 32.6847 207.495 33.3479 210.082 33.3479C213.068 33.3479 215.839 32.4692 218.159 30.9524C218.55 30.6954 218.342 30.1152 217.927 30.1152C217.885 30.1152 217.835 30.1235 217.785 30.1401C216.704 30.4633 215.564 30.6374 214.374 30.6374C211.18 30.6374 208.277 29.3692 206.197 27.3384C205.473 26.6339 204.849 25.8381 204.342 24.9678C203.277 22.7795 202.944 20.7156 202.944 20.7156C202.903 20.3343 202.886 19.953 202.886 19.5634C202.886 13.6452 207.719 8.80447 213.775 8.49778C213.975 8.48949 214.175 8.4812 214.383 8.4812C216.046 8.4812 217.61 8.79618 219.025 9.3764C220.955 10.1721 222.593 11.4735 223.791 13.1561C221.662 7.63574 216.379 3.88916 210.09 3.88916Z" fill="#FFD100"/>
<path d="M210.091 3.88916C209.983 3.88916 209.875 3.88916 209.767 3.88916C205.15 3.98863 201.048 6.22663 198.403 9.63336C197.821 10.197 191.798 19.7375 198.752 28.0844C199.925 29.4769 201.348 30.654 202.953 31.5326C201.789 30.0655 200.907 28.3662 200.391 26.5178C200.391 26.5178 199.576 23.741 200.025 20.7156C201.007 14.0016 206.763 8.78789 213.785 8.49778C213.984 8.48949 214.184 8.4812 214.392 8.4812C216.056 8.4812 217.62 8.79618 219.034 9.3764C220.964 10.1721 222.603 11.4735 223.801 13.1561C221.663 7.63574 216.38 3.88916 210.091 3.88916Z" fill="url(#paint0_linear_824_22949)"/>
<path d="M196.738 24.9678C197.279 26.0951 197.953 27.1395 198.751 28.0761C199.167 27.4462 199.733 26.8908 200.39 26.5178C200.249 26.0122 200.132 25.49 200.049 24.9678H196.738Z" fill="#FF8200"/>
<path d="M204.358 24.9678H200.058C200.141 25.4983 200.257 26.0122 200.399 26.5178C202.054 26.4432 204.45 26.5841 206.214 27.3384C205.49 26.6338 204.866 25.8381 204.358 24.9678Z" fill="#FFA300"/>
<path d="M225.272 22.7216C225.63 21.4119 225.813 20.036 225.813 18.6186C225.813 18.5937 225.813 18.5771 225.813 18.5522H224.199C224.374 19.1905 224.466 19.8536 224.466 20.5416C224.466 21.2959 224.349 22.0253 224.149 22.7216H225.272Z" fill="#0C2340"/>
<path d="M219.033 9.37646L216.463 12.9573C216.588 12.949 216.712 12.949 216.846 12.949C218.984 12.949 220.913 13.8276 222.303 15.245L223.8 13.1562C222.594 11.4736 220.963 10.1722 219.033 9.37646Z" fill="#0C2340"/>
<path d="M200.957 9.6333L196.032 20.7155H209.558L207.595 23.4674C206.98 24.2963 206.156 24.9677 204.9 24.9677H187.68L194.485 9.6333L200.957 9.6333Z" fill="#003594"/>
<path d="M313.824 31.3254C310.283 26.5717 304.083 20.7579 296.719 17.495L298.231 20.9567C291.964 17.8097 284.982 15.557 277.086 15.5902L278.765 17.4121C264.153 17.9587 255.592 25.1638 249.99 31.3254C250.123 22.994 256.108 15.4742 264.004 10.8861L262.375 9.37888C268.243 5.3374 276.488 4.19453 283.436 4.98957L282.439 3.21729C305.462 4.92332 315.22 22.0499 313.824 31.3254Z" fill="white"/>
<path d="M276.97 16.6832L275.208 14.7784C281.907 14.563 288.689 15.5568 296.569 19.2505L295.122 15.9212C301.057 18.207 307.64 22.4969 313.142 29.1223C312.643 19.0683 302.47 6.066 283.952 4.19434L284.982 6.04944C277.502 4.79062 269.09 6.09913 263.737 9.49463L265.416 11.035C257.354 15.3415 252.068 22.1822 250.938 29.1057C257.57 22.1988 266.214 17.4119 276.97 16.6832Z" fill="#0080C6"/>
<path d="M310.25 23.7226C307.108 15.3084 297.666 8.05361 287.077 6.31445L288.324 8.51739C281.94 6.54634 272.664 6.66228 266.58 9.84246L268.326 11.4657C262.724 13.8508 256.839 18.9523 254.495 23.6564C258.318 20.2112 266.647 16.2359 273.479 15.3912L271.783 13.5527C278.35 12.2607 287.094 13.5361 293.327 16.0703L292.114 13.2877C296.718 14.2318 305.263 18.3229 310.25 23.7226Z" fill="#FFC20E"/>
<defs>
<linearGradient id="paint0_linear_824_22949" x1="195.431" y1="31.5255" x2="223.796" y2="31.5255" gradientUnits="userSpaceOnUse">
<stop stop-color="#FFA300"/>
<stop offset="0.4781" stop-color="#FFA300" stop-opacity="0.01"/>
</linearGradient>
</defs>
</svg>
